<?xml version="1.0" encoding="utf-8"?><svg viewBox="0 0 21 26" xmlns="http://www.w3.org/2000/svg" xmlns:xlink="http://www.w3.org/1999/xlink"><style>:root>svg{display:none}:root>svg:target{display:block}</style><svg fill="none" viewBox="0 0 21 21" id="search" xmlns="http://www.w3.org/2000/svg"><path d="M19.889 18.98l-5.77-5.808A7.743 7.743 0 0015.378 11a7.22 7.22 0 00.465-2.58 7.13 7.13 0 00-.594-2.894 7.221 7.221 0 00-1.596-2.356 7.369 7.369 0 00-2.356-1.577A7.085 7.085 0 008.422 1a7.13 7.13 0 00-2.895.594A7.59 7.59 0 003.152 3.17a7.368 7.368 0 00-1.577 2.356A7.328 7.328 0 001 8.422c0 1.027.192 1.991.575 2.894.384.903.91 1.689 1.577 2.357.68.668 1.472 1.2 2.375 1.596a7.329 7.329 0 002.895.575c.928 0 1.806-.161 2.635-.483a7.517 7.517 0 002.226-1.336l5.752 5.79a.586.586 0 00.427.185c.16 0 .303-.062.427-.186a.578.578 0 00.167-.426.555.555 0 00-.167-.409zM8.422 14.675c-.866 0-1.682-.161-2.45-.483a6.502 6.502 0 01-1.985-1.354 6.673 6.673 0 01-1.336-1.986 6.133 6.133 0 01-.482-2.43c0-.866.16-1.676.482-2.43a6.674 6.674 0 011.336-1.986A6.238 6.238 0 015.973 2.67a6.067 6.067 0 012.449-.501c.853 0 1.657.167 2.412.5a5.975 5.975 0 011.985 1.337 6.238 6.238 0 011.336 1.985c.334.755.501 1.565.501 2.43 0 .867-.167 1.677-.5 2.431a6.238 6.238 0 01-1.337 1.986 6.216 6.216 0 01-1.985 1.354 6.088 6.088 0 01-2.412.483z" fill="#003D79" stroke="#003D79"/></svg><svg fill="none" viewBox="0 0 16 26" id="slide-next" xmlns="http://www.w3.org/2000/svg"><path d="M3.219.5L.28 3.438 9.823 13 .28 22.563 3.22 25.5l12.5-12.5L3.219.5z" fill="#003D79"/></svg><svg fill="none" viewBox="0 0 16 26" id="slide-prev" xmlns="http://www.w3.org/2000/svg"><path d="M15.719 3.438L12.78.5.281 13l12.5 12.5 2.938-2.938L6.177 13l9.542-9.563z" fill="#003D79"/></svg></svg>