<?xml version="1.0" encoding="utf-8"?><svg viewBox="0 0 73 73" xmlns="http://www.w3.org/2000/svg" xmlns:xlink="http://www.w3.org/1999/xlink"><style>:root>svg{display:none}:root>svg:target{display:block}</style><svg fill="none" viewBox="0 0 73 73" id="fast" xmlns="http://www.w3.org/2000/svg"><path d="M4.197 29.834v-3.777h7.884v3.777H4.197zM4.197 46.943v-3.777h7.884v3.777H4.197zM.25 38.389V34.61h11.832v3.778H.25zM16.858 36.5c0-15.409 12.537-27.946 27.946-27.946S72.75 21.091 72.75 36.5 60.213 64.445 44.804 64.445c-15.41 0-27.946-12.536-27.946-27.945zm3.778 0c0 13.327 10.841 24.168 24.168 24.168S68.972 49.827 68.972 36.5 58.131 12.332 44.804 12.332 20.636 23.173 20.636 36.5z" fill="#fff" stroke="#009DDC" stroke-width=".5"/><path d="M45.935 37.563v.132l.11.074 8.947 6.098-2.127 3.121-10.707-7.296V23.997h3.777v13.566z" fill="#fff" stroke="#009DDC" stroke-width=".5"/></svg><svg fill="none" viewBox="0 0 71 71" id="fit" xmlns="http://www.w3.org/2000/svg"><path d="M66.192 24.746h-1.089v-6.078c0-1.991-1.62-3.61-3.613-3.61H39.7a3.617 3.617 0 00-3.612 3.638v7.483c0 .766.621 1.387 1.387 1.387h2.476c1.121 0 2.034.91 2.034 2.03 0 1.119-.913 2.03-2.034 2.03h-2.476c-.766 0-1.387.62-1.387 1.386v7.482c.006.333.058.655.15.96a3.608 3.608 0 00-.99-.137h-7.473c-.766 0-1.387.62-1.387 1.387v2.47a2.035 2.035 0 01-4.068 0v-2.47c0-.766-.62-1.387-1.387-1.387h-7.475a3.613 3.613 0 00-3.588 3.198c-.006.053-.009.107-.009.16v22.28c0 .053.003.106.01.159a3.61 3.61 0 003.588 3.193h21.79c.854 0 1.64-.298 2.26-.795a3.59 3.59 0 002.192.748h21.79a3.616 3.616 0 003.612-3.61v-4.195a1.387 1.387 0 00-2.773 0v4.195a.84.84 0 01-.84.837H39.7a.842.842 0 01-.838-.813v-6.056h1.089a4.81 4.81 0 004.807-4.803 4.81 4.81 0 00-4.807-4.804h-1.09v-6.078-.05a.842.842 0 01.84-.839h6.087v1.083a4.81 4.81 0 004.808 4.804 4.81 4.81 0 004.807-4.804v-1.083h6.087c.463 0 .84.378.84.843v5.03a1.387 1.387 0 102.773 0v-5.03a3.6 3.6 0 00-.77-2.23c.483-.613.77-1.387.77-2.226v-6.078h1.09A4.811 4.811 0 0071 29.548a4.81 4.81 0 00-4.808-4.803zM39.951 53.785c1.121 0 2.034.91 2.034 2.03 0 1.12-.913 2.03-2.034 2.03h-2.476c-.766 0-1.387.62-1.387 1.387v7.464a.84.84 0 01-.84.837H13.46a.837.837 0 01-.824-.678V44.774a.84.84 0 01.824-.684h6.088v1.083a4.81 4.81 0 004.807 4.804 4.81 4.81 0 004.808-4.804V44.09h6.087c.457 0 .83.37.84.827v7.481c0 .766.62 1.387 1.386 1.387h2.476zm26.241-22.206h-2.475c-.766 0-1.387.621-1.387 1.387v7.465a.84.84 0 01-.84.84h-7.474c-.765 0-1.386.62-1.386 1.386v2.47a2.035 2.035 0 01-4.069 0v-2.47c0-.765-.62-1.386-1.386-1.386H39.7a.843.843 0 01-.84-.816V34.4h1.09a4.811 4.811 0 004.808-4.803 4.811 4.811 0 00-4.808-4.804h-1.09V18.668c0-.462.377-.837.84-.837h21.79a.84.84 0 01.839.837v7.464c0 .766.62 1.387 1.387 1.387h2.476c1.121 0 2.034.91 2.034 2.03 0 1.12-.913 2.03-2.035 2.03z" fill="#fff"/><path d="M63.717 57.599c-.579 0-1.11-.376-1.305-.92a1.398 1.398 0 01.408-1.525 1.399 1.399 0 011.629-.12c.484.3.74.89.627 1.448a1.4 1.4 0 01-1.359 1.117zM14.263 19.334c-.337 0-.663-.122-.918-.347l-2.866-2.53a1.387 1.387 0 011.835-2.08l1.754 1.55 3.763-4.892a1.387 1.387 0 112.198 1.69l-4.667 6.068a1.386 1.386 0 01-1.1.541z" fill="#fff"/><path d="M14.493 35.566a4.811 4.811 0 01-4.808-4.803V29.68H3.598a3.611 3.611 0 01-3.589-3.196 1.385 1.385 0 01-.009-.16V4.046c0-.053.003-.106.01-.16A3.61 3.61 0 013.597.694h21.79A3.616 3.616 0 0129 4.303v6.079h1.09a4.81 4.81 0 014.807 4.803 4.811 4.811 0 01-4.807 4.804H29v6.078a3.617 3.617 0 01-3.612 3.613H19.3v1.083a4.81 4.81 0 01-4.807 4.803zm-11.72-9.34c.075.392.42.68.825.68h7.474c.766 0 1.387.622 1.387 1.387v2.47a2.035 2.035 0 004.068 0v-2.47c0-.765.62-1.386 1.386-1.386h7.474a.84.84 0 00.84-.84v-7.465c0-.766.62-1.387 1.387-1.387h2.475c1.122 0 2.035-.91 2.035-2.03 0-1.12-.913-2.03-2.035-2.03h-2.475a1.387 1.387 0 01-1.387-1.387V4.304a.839.839 0 00-.84-.837H3.599a.837.837 0 00-.825.678v22.08z" fill="#fff"/></svg><svg fill="none" viewBox="0 0 21 21" id="search" xmlns="http://www.w3.org/2000/svg"><path d="M19.889 18.98l-5.77-5.808A7.743 7.743 0 0015.378 11a7.22 7.22 0 00.465-2.58 7.13 7.13 0 00-.594-2.894 7.221 7.221 0 00-1.596-2.356 7.369 7.369 0 00-2.356-1.577A7.085 7.085 0 008.422 1a7.13 7.13 0 00-2.895.594A7.59 7.59 0 003.152 3.17a7.368 7.368 0 00-1.577 2.356A7.328 7.328 0 001 8.422c0 1.027.192 1.991.575 2.894.384.903.91 1.689 1.577 2.357.68.668 1.472 1.2 2.375 1.596a7.329 7.329 0 002.895.575c.928 0 1.806-.161 2.635-.483a7.517 7.517 0 002.226-1.336l5.752 5.79a.586.586 0 00.427.185c.16 0 .303-.062.427-.186a.578.578 0 00.167-.426.555.555 0 00-.167-.409zM8.422 14.675c-.866 0-1.682-.161-2.45-.483a6.502 6.502 0 01-1.985-1.354 6.673 6.673 0 01-1.336-1.986 6.133 6.133 0 01-.482-2.43c0-.866.16-1.676.482-2.43a6.674 6.674 0 011.336-1.986A6.238 6.238 0 015.973 2.67a6.067 6.067 0 012.449-.501c.853 0 1.657.167 2.412.5a5.975 5.975 0 011.985 1.337 6.238 6.238 0 011.336 1.985c.334.755.501 1.565.501 2.43 0 .867-.167 1.677-.5 2.431a6.238 6.238 0 01-1.337 1.986 6.216 6.216 0 01-1.985 1.354 6.088 6.088 0 01-2.412.483z" fill="#003D79" stroke="#003D79"/></svg><svg fill="none" viewBox="0 0 16 26" id="slide-next" xmlns="http://www.w3.org/2000/svg"><path d="M3.219.5L.28 3.438 9.823 13 .28 22.563 3.22 25.5l12.5-12.5L3.219.5z" fill="#003D79"/></svg><svg fill="none" viewBox="0 0 16 26" id="slide-prev" xmlns="http://www.w3.org/2000/svg"><path d="M15.719 3.438L12.78.5.281 13l12.5 12.5 2.938-2.938L6.177 13l9.542-9.563z" fill="#003D79"/></svg><svg fill="none" viewBox="0 0 60 60" id="square" xmlns="http://www.w3.org/2000/svg"><g clip-path="url(#fclip0)"><path d="M58.045 60H1.955A1.955 1.955 0 010 58.045V1.955C0 .875.875 0 1.955 0h56.09C59.125 0 60 .875 60 1.955v56.09c0 1.08-.875 1.955-1.955 1.955zM3.91 56.09h52.18V3.91H3.91v52.18z" fill="#fff"/></g><path stroke="#009DDC" d="M.5.5h59v59H.5z"/><defs><clipPath id="fclip0"/></defs></svg></svg>