<?xml version="1.0" standalone="no"?>
<!DOCTYPE svg PUBLIC "-//W3C//DTD SVG 20010904//EN"
 "http://www.w3.org/TR/2001/REC-SVG-20010904/DTD/svg10.dtd">
<svg version="1.0" xmlns="http://www.w3.org/2000/svg"
 width="1568.000000pt" height="1568.000000pt" viewBox="0 0 1568.000000 1568.000000"
 preserveAspectRatio="xMidYMid meet">
<metadata>
Created by potrace 1.11, written by Peter Selinger 2001-2013
</metadata>
<g transform="translate(0.000000,1568.000000) scale(0.100000,-0.100000)"
fill="#000000" stroke="none">
<path d="M5089 11991 c-1 -3 -2 -566 -3 -1251 l-1 -1245 -1910 -2 c-1784 -1
-2077 -4 -2147 -18 -16 -3 -40 -7 -55 -10 -120 -20 -245 -61 -353 -114 -100
-50 -213 -118 -218 -132 -2 -5 -9 -9 -16 -9 -20 0 -183 -174 -229 -246 -40
-62 -93 -159 -88 -159 1 0 -3 -13 -10 -30 -50 -122 -71 -323 -47 -455 5 -30
10 -62 11 -70 10 -68 122 -315 155 -340 4 -3 27 -30 52 -60 25 -30 60 -68 79
-85 109 -95 90 -81 183 -138 42 -26 107 -61 143 -78 77 -35 122 -50 220 -75 6
-1 24 -5 40 -8 17 -3 41 -8 55 -12 14 -3 108 -6 210 -8 l185 -2 3 -185 2 -185
58 -23 c31 -12 75 -31 98 -42 23 -10 46 -19 52 -19 6 0 36 -11 66 -25 30 -14
58 -25 61 -25 3 0 25 -8 48 -19 23 -10 107 -44 187 -75 151 -60 163 -65 220
-89 19 -8 78 -31 130 -52 52 -20 104 -41 115 -46 11 -4 45 -18 75 -30 30 -12
58 -25 62 -28 4 -3 -266 -6 -600 -5 l-607 1 -230 92 c-126 51 -243 99 -260
106 -16 7 -68 27 -115 45 -47 18 -94 38 -105 44 -11 5 -24 11 -30 12 -14 3
-218 85 -230 92 -5 4 -14 7 -20 8 -5 1 -50 18 -99 38 -49 20 -91 34 -95 31 -3
-4 -6 -87 -6 -185 l0 -178 35 -15 c19 -9 67 -28 105 -42 39 -15 88 -35 110
-45 22 -9 60 -25 85 -35 25 -10 64 -26 87 -36 24 -11 49 -19 56 -19 7 0 17 -4
22 -9 13 -10 379 -156 384 -152 2 1 7 -1 10 -6 3 -5 73 -35 155 -67 l149 -59
1366 0 c751 0 1384 4 1406 7 22 4 54 9 70 12 37 5 70 12 70 14 0 2 15 6 55 14
73 16 248 97 331 153 117 79 164 122 279 260 5 7 10 15 10 19 0 4 6 15 14 23
15 17 86 145 88 158 1 5 8 24 16 42 7 19 15 42 17 50 2 9 8 34 13 56 19 69 26
137 25 230 -1 109 -2 122 -20 205 -8 36 -16 72 -18 80 -8 39 -74 173 -122 246
-114 175 -289 315 -523 417 -46 20 -157 54 -201 61 -19 3 -45 9 -59 13 -14 4
-718 8 -1565 10 -847 1 -1568 2 -1602 3 l-63 0 0 190 0 190 58 0 c31 1 966 1
2077 1 1111 0 2027 2 2035 4 13 4 15 57 13 408 l-1 403 186 0 187 0 5 199 5
199 235 0 235 0 2 -144 c2 -119 5 -144 17 -146 30 -4 39 25 40 139 1 62 -2
119 -6 128 -11 24 -3 24 257 24 l230 -1 1 -79 c2 -115 2 -114 22 -110 9 2 20
4 25 4 4 1 7 42 7 91 0 50 3 90 8 91 35 5 476 3 484 -2 12 -8 17 -69 6 -69 -5
0 -5 -8 0 -17 4 -10 7 -35 7 -55 -2 -35 1 -38 24 -38 l27 0 -1 86 c0 47 2 88
5 92 3 4 114 7 248 7 277 0 252 9 251 -95 -1 -90 -1 -90 26 -90 25 0 25 1 25
90 0 65 3 90 13 91 43 3 464 4 475 1 9 -3 13 -23 11 -66 -3 -111 -1 -118 23
-114 26 4 41 49 28 84 -5 13 -5 26 0 29 4 3 6 19 4 35 -4 20 -1 30 8 31 84 7
488 2 489 -6 1 -5 2 -46 3 -90 1 -78 2 -80 27 -83 l26 -3 -1 86 c-1 48 4 90 9
94 6 3 118 6 250 6 l240 -1 3 -92 3 -92 29 0 29 0 -1 78 c0 42 0 84 1 92 1 13
33 15 229 14 125 -1 235 -2 245 -3 15 -1 18 -9 17 -38 -1 -21 -2 -62 -1 -90 1
-50 3 -53 26 -53 27 0 26 -4 27 125 l0 60 207 -1 c205 -1 279 -10 283 -37 0
-7 1 -41 2 -77 1 -62 2 -65 26 -65 24 0 25 2 24 63 0 34 3 62 6 62 7 0 61 -17
90 -27 8 -3 20 -7 25 -9 9 -2 292 -98 325 -110 8 -3 15 -5 15 -4 0 1 24 -8 53
-19 28 -11 52 -18 52 -15 0 4 6 2 13 -3 6 -6 26 -14 42 -18 l30 -7 -50 -19
c-180 -68 -319 -153 -433 -263 -79 -77 -157 -184 -196 -269 -29 -64 -68 -186
-62 -196 2 -3 33 -8 68 -10 131 -6 126 -3 104 -54 -17 -43 -43 -132 -53 -183
-14 -73 -7 -285 11 -344 9 -30 17 -57 17 -60 13 -59 90 -222 119 -250 3 -3 18
-23 34 -45 144 -197 456 -384 711 -425 39 -7 86 -15 105 -18 19 -4 754 -7
1633 -7 879 1 1601 -3 1603 -7 5 -7 8 -234 5 -353 l-1 -40 -2017 0 -2018 -1
-3 -402 -2 -402 1958 0 c1114 0 1972 4 1992 9 42 11 134 32 152 35 7 1 18 4
23 7 6 4 24 10 40 14 50 14 64 19 154 63 138 66 262 162 372 288 117 134 208
361 213 526 0 27 5 48 9 48 5 0 5 5 2 10 -4 6 -8 43 -10 83 -2 40 -9 95 -15
122 -6 28 -13 57 -15 65 -7 31 -53 147 -75 185 -75 134 -172 245 -293 336 -45
34 -88 64 -97 67 -8 3 -17 8 -20 12 -11 13 -159 80 -230 103 -116 38 -189 54
-280 62 -25 2 -750 4 -1613 4 l-1567 1 2 188 3 187 1510 1 c831 0 1521 -3
1535 -7 14 -3 34 -3 45 1 11 4 24 5 29 2 5 -3 50 -6 100 -8 50 -2 141 -6 201
-9 218 -10 362 -16 450 -20 50 -2 147 -7 218 -10 l127 -6 0 535 0 535 -1770
-1 c-973 0 -1784 4 -1802 7 -18 4 -39 12 -45 17 -7 6 -13 8 -13 5 0 -3 -30 6
-67 19 -38 14 -77 27 -88 29 -11 3 -65 21 -120 40 -55 20 -105 37 -112 39 -16
3 -604 197 -628 207 -26 11 -417 141 -430 143 -5 1 -14 4 -20 7 -5 3 -64 23
-130 43 -66 21 -129 42 -140 47 -11 5 -119 41 -240 80 -121 39 -233 77 -250
84 -16 6 -70 24 -120 40 -49 15 -99 31 -110 36 -32 13 -146 51 -159 53 -6 1
-15 4 -21 7 -5 4 -23 10 -40 14 -40 11 -44 12 -52 15 -5 1 -11 2 -15 1 -5 0
-8 3 -8 7 0 5 -6 9 -13 9 -7 0 -81 23 -165 52 -84 29 -160 54 -170 56 -22 5
-290 95 -317 106 -11 4 -65 22 -120 40 -55 17 -109 35 -120 40 -26 10 -384
130 -404 135 -9 2 -90 29 -181 59 -91 31 -173 58 -182 60 -9 2 -25 8 -35 13
-10 6 -22 11 -28 12 -5 2 -14 4 -20 6 -19 5 -740 244 -770 254 -79 28 -212 72
-225 76 -8 2 -120 39 -247 82 -128 44 -233 77 -233 74 0 -2 -7 1 -15 8 -8 7
-15 9 -15 5 0 -4 -7 -2 -15 5 -8 7 -15 9 -15 5 0 -4 -6 -3 -13 3 -7 6 -24 13
-37 16 -14 3 -146 46 -295 96 -383 129 -445 149 -446 141z m456 -512 c5 -5 19
-9 30 -9 12 0 25 -3 29 -7 3 -4 12 -8 19 -9 7 -1 82 -26 168 -56 l156 -53 -1
-140 -1 -140 -237 0 -238 -1 0 218 0 218 33 -5 c17 -4 36 -10 42 -16z m485
-167 c0 3 102 -30 228 -72 l227 -77 1 -39 c1 -21 -1 -43 -3 -49 -5 -14 -471
-14 -476 0 -2 5 -3 61 -3 123 1 61 -3 112 -7 112 -5 0 -5 5 -2 10 5 8 11 7 21
-1 8 -6 14 -9 14 -7z m685 -226 c6 -1 18 -7 29 -13 14 -8 -8 -10 -93 -10
l-111 -1 0 44 0 43 83 -30 c45 -17 87 -32 92 -33z m-768 -338 l-2 -263 -237 0
-238 0 0 262 0 263 240 0 239 0 -2 -262z m538 0 c1 -169 -3 -259 -10 -261 -9
-2 -412 -1 -457 2 -14 1 -16 12 -14 79 1 42 -2 85 -6 95 -5 9 -5 17 -1 17 4 0
7 71 7 157 -1 87 1 161 3 166 2 4 111 6 241 5 l237 -3 0 -257z m510 243 c17
-8 33 -14 38 -13 8 2 10 -18 8 -98 -1 -74 -1 -70 2 -115 2 -22 -1 -46 -6 -52
-5 -7 -6 -13 -1 -13 5 0 9 -47 9 -105 l0 -105 -252 0 -253 0 0 261 0 260 213
-3 c155 -2 220 -7 242 -17z m343 -117 c125 -42 234 -80 244 -85 10 -5 15 -19
14 -34 -2 -14 2 -25 8 -25 7 0 7 -3 1 -8 -6 -4 -10 -55 -10 -117 l0 -110 -250
-3 -250 -2 1 222 c1 240 1 238 9 238 3 0 108 -34 233 -76z m682 -231 c8 -4 17
-7 20 -8 3 0 29 -9 58 -19 l52 -18 0 -54 0 -54 -250 0 -250 0 0 139 0 140 178
-60 c97 -33 184 -63 192 -66z m322 -104 c68 -22 125 -43 127 -45 2 -2 -57 -4
-132 -4 l-136 0 1 45 c0 25 4 45 9 45 4 0 63 -18 131 -41z m-2393 -357 l-1
-247 -239 -1 -239 0 0 248 0 248 240 0 240 0 -1 -248z m536 1 l0 -248 -225 0
c-124 -1 -233 3 -242 7 -11 5 -16 18 -14 36 1 15 -1 35 -6 45 -5 9 -5 17 -1
17 4 0 7 88 7 195 l-2 195 242 0 242 0 -1 -247z m556 240 c5 -41 3 -83 -4 -83
-4 0 -5 -6 0 -12 10 -18 10 -100 0 -115 -5 -7 -6 -13 -1 -13 5 0 9 -22 9 -50
0 -27 -4 -50 -8 -50 -5 0 -5 -5 -1 -12 10 -16 12 -76 2 -90 -3 -7 -2 -20 3
-29 6 -12 5 -20 -2 -25 -13 -8 -483 -9 -496 -1 -4 3 -7 114 -5 246 l3 241 249
0 c138 0 250 -3 251 -7z m555 -240 c1 -241 1 -243 -20 -244 -122 -3 -469 1
-474 6 -4 4 -7 114 -7 246 l0 239 250 -2 250 -3 1 -242z m552 2 c1 -223 -1
-245 -16 -246 -24 0 -454 -1 -469 0 -10 1 -13 57 -13 246 l0 245 249 0 249 0
0 -245z m537 231 c18 -13 19 -30 20 -245 l0 -231 -35 -1 c-19 0 -132 -1 -250
-1 l-215 -1 0 47 c0 25 -4 46 -8 46 -5 0 -5 5 -1 12 4 7 7 93 7 192 0 100 1
184 4 189 2 4 107 7 232 7 178 0 231 -3 246 -14z m103 -38 c7 -7 12 -9 12 -6
0 4 28 -4 62 -18 34 -13 64 -22 66 -19 3 3 10 1 16 -4 6 -4 76 -30 156 -56 80
-27 149 -51 153 -55 8 -7 12 -268 4 -277 -5 -4 -361 -7 -477 -4 l-25 1 2 217
c1 120 2 221 2 226 1 11 15 9 29 -5z m632 -208 c36 -12 74 -25 85 -29 26 -11
163 -57 241 -82 l61 -19 0 -45 c0 -25 -4 -48 -9 -52 -13 -7 -467 -7 -475 0 -4
5 -8 207 -4 255 1 9 6 9 19 3 9 -6 46 -20 82 -31z m565 -192 c50 -17 93 -33
98 -37 4 -4 -43 -6 -103 -5 -61 0 -114 4 -117 8 -10 10 -12 36 -3 36 4 0 6 10
2 22 -4 18 -2 20 14 14 10 -5 60 -22 109 -38z m-6212 -2158 c4 -1 10 -3 15 -4
10 -2 220 -84 257 -101 17 -7 41 -16 55 -20 14 -4 43 -16 65 -25 41 -18 74
-32 88 -35 4 -2 9 -4 12 -5 3 -1 8 -3 13 -5 4 -1 21 -7 37 -14 17 -7 71 -28
120 -47 50 -20 128 -51 175 -69 47 -18 128 -50 180 -70 52 -20 104 -40 115
-45 11 -5 30 -12 43 -15 12 -4 22 -9 22 -13 0 -4 -271 -7 -602 -6 -594 1 -604
1 -658 23 -30 12 -64 26 -75 31 -27 13 -78 33 -91 35 -6 2 -29 11 -50 20 -38
17 -62 27 -106 44 -38 14 -121 48 -153 62 -16 7 -33 13 -37 13 -3 1 -10 4 -14
9 -4 4 -13 7 -20 7 -8 0 -38 11 -68 25 -30 14 -58 25 -61 25 -4 0 -21 7 -38
15 -18 7 -79 32 -137 55 -58 23 -118 47 -135 54 -16 8 -51 21 -77 31 -26 10
-46 20 -44 24 4 5 1151 7 1169 1z m-1168 -378 c41 -18 72 -31 175 -72 58 -23
119 -48 137 -56 17 -8 34 -14 38 -14 3 0 31 -11 61 -25 30 -14 58 -25 62 -25
6 0 52 -18 257 -102 62 -25 93 -38 123 -49 12 -5 32 -13 45 -19 12 -5 74 -30
137 -56 63 -25 116 -47 117 -48 2 -1 -273 -2 -610 -1 l-612 1 -155 62 c-85 35
-166 68 -180 74 -14 6 -28 12 -32 14 -5 1 -10 3 -13 4 -3 1 -8 3 -12 5 -5 1
-21 8 -38 15 -16 7 -32 14 -35 15 -17 6 -50 19 -85 33 -21 10 -39 15 -40 13 0
-2 -19 6 -42 18 -23 11 -49 21 -58 21 -8 0 -15 5 -15 10 0 6 -3 9 -7 8 -11 -3
-453 174 -453 181 0 10 1213 2 1235 -7z"/>
<path d="M6378 9484 c-2 -2 -28 -6 -57 -9 -29 -3 -72 -10 -94 -16 -54 -13 -52
-12 -122 -34 -33 -10 -62 -19 -65 -20 -30 -6 -200 -106 -200 -117 0 -5 -6 -8
-14 -8 -8 0 -16 -7 -20 -15 -3 -8 -11 -15 -19 -15 -18 0 -147 -134 -183 -190
-16 -25 -32 -47 -35 -50 -13 -10 -84 -175 -94 -220 -44 -190 -44 -186 -51
-358 -10 -204 -10 -1276 -1 -1342 4 -30 15 -77 23 -105 16 -50 83 -195 94
-205 3 -3 17 -21 30 -40 55 -78 195 -221 265 -268 22 -15 42 -30 45 -34 19
-24 270 -137 310 -139 3 0 14 -2 25 -4 11 -3 36 -8 55 -12 19 -4 929 -9 2023
-10 l1987 -3 1 37 c1 21 1 47 0 58 -1 11 -1 31 -1 45 1 14 1 32 1 40 -1 8 -1
26 0 40 0 14 0 32 0 40 -1 8 -1 26 0 40 0 14 0 32 0 40 -1 8 -1 26 0 40 0 14
0 32 0 40 -1 8 -1 26 0 40 0 14 0 32 0 40 -1 8 -1 26 0 40 0 14 0 32 0 40 -1
8 -1 26 0 40 0 14 0 32 0 40 -1 8 -1 26 0 40 0 14 0 32 0 40 -1 8 -1 25 -1 38
0 12 -4 22 -8 23 -4 0 -905 2 -2002 2 l-1995 2 -1 798 c0 472 4 800 9 804 14
8 167 9 167 1 0 -4 7 -5 15 -2 24 10 98 11 121 3 12 -4 25 -5 28 -1 9 9 76 9
76 0 0 -4 7 -5 15 -2 24 10 98 11 121 3 12 -4 25 -5 28 -1 9 9 76 9 76 0 0 -4
7 -5 15 -2 24 10 98 11 121 3 12 -4 25 -5 28 -1 9 9 76 9 76 0 0 -4 7 -5 15
-2 24 10 98 11 121 3 12 -4 25 -5 28 -1 9 9 76 9 76 0 0 -4 7 -5 15 -2 24 10
115 10 115 1 0 -4 5 -5 11 -1 10 6 221 10 244 4 6 -1 12 -1 15 0 15 6 80 4 80
-2 0 -4 7 -5 15 -2 24 10 98 11 121 3 12 -4 25 -5 28 -1 9 8 76 9 76 0 0 -3
12 -3 28 1 15 4 43 6 62 5 57 -4 103 -4 145 -1 22 2 50 0 61 -4 12 -4 25 -5
28 -1 9 9 76 9 76 0 0 -4 7 -5 15 -2 24 10 98 11 121 3 12 -4 25 -5 28 -1 10
9 76 9 76 -1 0 -4 5 -5 12 -1 15 9 868 11 868 2 0 -4 7 -5 15 -2 24 10 98 11
121 3 12 -4 25 -5 28 -1 9 9 76 9 76 0 0 -4 7 -5 15 -2 24 10 98 11 121 3 12
-4 25 -5 28 -1 9 8 76 9 76 0 0 -3 12 -3 28 1 15 4 50 6 77 5 l50 -3 -1 397
c-1 218 -2 401 -3 405 -1 8 -3895 9 -3903 1z"/>
<path d="M6142 6052 c7 -2 22 -7 33 -12 32 -14 271 -100 277 -100 3 0 23 -8
44 -17 22 -9 41 -17 44 -18 14 -3 57 -17 75 -24 11 -5 54 -21 95 -35 41 -15
104 -38 140 -51 163 -60 261 -96 306 -110 27 -9 58 -20 69 -25 11 -5 72 -27
135 -50 63 -22 122 -43 130 -46 8 -3 16 -5 18 -4 1 0 16 -7 32 -15 17 -9 30
-13 30 -10 0 3 19 -4 43 -16 23 -12 44 -22 47 -22 8 1 134 -42 258 -88 28 -10
77 -28 107 -39 137 -50 171 -62 190 -70 11 -5 92 -34 180 -65 88 -31 167 -59
175 -62 8 -4 17 -7 20 -8 3 -1 12 -4 20 -8 8 -3 56 -20 105 -37 50 -18 99 -36
110 -40 11 -5 52 -20 90 -33 39 -14 153 -55 255 -92 102 -36 194 -70 205 -74
50 -21 121 -45 128 -43 4 1 7 -3 7 -10 0 -6 3 -9 6 -5 5 5 133 -37 189 -62 11
-6 38 -15 60 -22 22 -6 45 -15 50 -20 6 -4 22 -10 35 -13 19 -4 285 -98 398
-141 7 -2 14 -5 17 -5 3 0 25 -9 50 -20 25 -11 49 -20 53 -21 4 -1 16 -5 27
-9 11 -4 97 -35 190 -68 94 -33 187 -68 208 -76 20 -9 37 -13 37 -10 0 4 6 2
13 -3 6 -6 39 -20 72 -31 33 -12 112 -40 175 -63 160 -58 272 -98 440 -158 80
-29 154 -56 165 -61 11 -5 110 -41 220 -80 110 -39 207 -74 215 -77 8 -4 17
-7 20 -8 3 -1 12 -4 20 -7 8 -4 29 -11 45 -16 17 -6 68 -25 115 -42 47 -17 97
-35 113 -40 l27 -9 0 1145 0 1144 -189 0 c-142 0 -190 -3 -193 -12 -2 -7 -3
-46 -2 -85 0 -40 -2 -73 -5 -74 -37 -5 -311 -3 -327 3 -12 3 -25 4 -28 0 -4
-3 -29 -6 -57 -7 -62 -1 -66 6 -62 106 l2 69 -28 0 -29 0 2 -72 c1 -40 -1 -80
-5 -88 -6 -12 -27 -15 -102 -14 -52 1 -99 4 -105 8 -6 3 -13 3 -15 -1 -3 -5
-61 -8 -129 -8 l-123 1 -3 87 c-3 84 -4 87 -26 87 -29 0 -32 -7 -31 -97 0 -40
-4 -74 -10 -76 -9 -2 -470 -1 -486 2 -4 1 -6 38 -5 84 l1 82 -28 3 c-24 3 -27
0 -28 -25 -1 -15 0 -32 1 -38 3 -12 3 -76 0 -90 -1 -5 -2 -12 -2 -15 1 -8
-223 -4 -236 4 -6 3 -13 3 -15 -1 -3 -5 -58 -8 -123 -7 -136 1 -130 -3 -128
104 2 70 2 70 -25 70 l-27 0 1 -75 c0 -41 -2 -81 -6 -87 -6 -9 -73 -12 -248
-13 l-241 0 -1 30 c-1 17 -1 56 0 88 l2 58 -28 -3 -28 -3 0 -83 c0 -45 -3 -82
-7 -83 -39 -5 -218 -3 -234 3 -12 4 -25 4 -29 0 -3 -4 -57 -7 -120 -7 l-114 0
1 85 c0 84 0 85 -26 88 -16 2 -26 -2 -27 -10 0 -7 -1 -47 -2 -87 l-2 -75 -243
0 c-152 -1 -246 3 -250 9 -4 6 -7 42 -8 80 -2 97 -1 93 -30 87 -21 -4 -25 -9
-21 -28 2 -13 0 -24 -5 -24 -5 0 -6 -5 -3 -11 11 -16 12 -70 3 -75 -5 -3 -4
-12 3 -20 6 -8 10 -14 8 -15 -2 0 -105 -2 -229 -3 -214 -1 -228 0 -290 22 -36
13 -78 28 -93 32 -16 5 -35 14 -43 21 -8 6 -14 9 -14 5 0 -4 -13 0 -30 9 -16
8 -32 15 -35 15 -3 0 -21 7 -41 15 -20 8 -40 15 -44 15 -4 0 -27 9 -51 19 -42
19 -76 20 -647 23 -331 2 -596 2 -590 0z m2094 -234 c7 -8 8 -98 0 -105 -5 -5
-28 2 -91 27 -11 4 -47 18 -80 30 -33 12 -72 28 -86 36 -14 7 -30 10 -34 6 -5
-4 -6 -2 -2 3 6 12 282 14 293 3z m560 -156 c1 -89 -2 -162 -7 -162 -4 0 -63
20 -131 45 -135 50 -145 54 -156 56 -4 1 -37 15 -73 30 -37 15 -81 30 -98 34
-17 4 -32 12 -32 18 -3 26 -5 132 -3 137 1 3 114 5 251 5 l248 -1 1 -162z
m554 151 c3 -7 5 -117 4 -245 l0 -233 -58 -3 c-61 -3 -57 -4 -303 88 l-141 53
-1 169 c-1 94 1 173 3 177 2 3 114 6 248 6 182 0 244 -3 248 -12z m545 5 c7
-4 10 -94 9 -245 l0 -238 -249 0 -248 0 1 230 c1 127 1 237 1 245 1 13 33 15
239 15 130 0 242 -3 247 -7z m565 -73 c0 -44 0 -98 1 -120 0 -22 0 -44 -1 -50
-2 -16 -2 -149 0 -160 1 -5 2 -27 1 -47 l-1 -38 -250 0 c-193 0 -250 3 -251
13 -1 15 -1 458 0 472 1 7 87 11 251 10 l251 0 -1 -80z m556 -167 l0 -248
-251 0 -251 0 0 243 c0 133 3 244 7 247 4 3 117 5 251 5 l244 0 0 -247z m535
222 c1 -31 1 -429 0 -451 -1 -14 -28 -16 -241 -16 l-240 1 0 242 c0 153 4 244
10 246 6 2 114 3 240 3 l230 0 1 -25z m525 21 c7 -1 10 -73 9 -238 -1 -131 -3
-240 -4 -243 0 -3 -107 -5 -236 -5 -203 0 -235 2 -236 15 -1 17 -1 450 0 465
1 7 79 10 229 9 125 -1 232 -2 238 -3z m-122 -542 c61 2 63 2 101 -1 l30 -3 0
-253 c1 -139 -2 -256 -5 -260 -3 -4 -110 -7 -237 -7 l-233 0 -1 35 c0 19 -1
136 -1 260 l-1 225 133 2 c73 1 135 5 138 7 2 3 9 3 15 -1 6 -3 33 -5 61 -4z
m-2059 -8 c10 -1 13 -177 3 -187 -6 -5 -156 50 -210 77 -10 5 -24 9 -31 9 -7
0 -32 9 -55 20 -22 11 -47 20 -55 20 -7 0 -17 3 -21 8 -4 4 -11 7 -14 7 -15 1
-102 38 -102 44 0 5 442 7 485 2z m561 -4 c8 -8 9 -85 2 -93 -4 -3 -2 -19 2
-35 5 -16 5 -31 0 -34 -5 -3 -5 -16 0 -30 5 -14 5 -27 0 -30 -4 -3 -5 -16 -2
-30 10 -33 2 -145 -9 -145 -5 0 -28 9 -52 19 -23 11 -69 29 -102 40 -33 12
-69 26 -80 30 -21 10 -116 45 -125 47 -3 0 -14 4 -25 9 -11 4 -40 16 -64 25
l-44 17 0 99 c1 54 2 104 2 109 1 11 487 13 497 2z m560 -254 l0 -261 -127 -1
c-70 -1 -136 3 -146 8 -18 10 -49 22 -68 27 -5 1 -23 8 -40 15 -16 6 -34 13
-40 14 -5 2 -26 9 -45 17 l-35 15 1 209 c1 115 2 211 3 214 0 3 112 5 248 5
l248 -1 1 -261z m535 253 c7 -71 2 -499 -6 -505 -5 -5 -115 -8 -242 -8 l-233
0 0 261 0 261 240 1 c161 0 240 -3 241 -10z m-115 -567 c63 0 114 -2 115 -6 5
-34 3 -226 -2 -229 -6 -3 -113 33 -164 56 -11 4 -65 25 -120 45 -189 69 -190
70 -193 105 l-3 31 115 -3 c64 -2 116 1 116 5 0 5 5 5 11 1 7 -4 63 -6 125 -5z
m640 1 c7 0 10 -72 10 -220 0 -217 0 -220 -20 -214 -12 4 -68 25 -126 47 -58
23 -109 42 -115 42 -5 1 -27 9 -47 18 -21 9 -44 17 -52 17 -8 0 -17 4 -20 9
-3 4 -26 14 -51 21 -51 14 -46 -5 -49 182 -1 90 0 97 19 100 15 2 395 1 451
-2z m-1059 -17 c7 -19 -11 -23 -50 -9 -52 18 -52 22 0 21 26 0 48 -5 50 -12z"/>
</g>
</svg>
