<svg width="24" height="34" viewBox="0 0 24 34" fill="none" xmlns="http://www.w3.org/2000/svg">
<path d="M15.605 0.381062L15.6051 0.381173L23.5721 8.34818L23.6605 8.25979L23.5722 8.3483C23.7064 8.4821 23.769 8.62993 23.7989 8.74838C23.8139 8.80769 23.8206 8.85941 23.8238 8.8979C23.8254 8.91713 23.8262 8.93313 23.8267 8.94577L23.8275 8.96349L23.8275 8.96401C23.8276 8.9655 23.8277 8.96882 23.8281 8.97307V33.0039C23.8281 33.485 23.4381 33.875 22.957 33.875H1.04297C0.561894 33.875 0.171875 33.485 0.171875 33.0039V0.996158C0.171875 0.515085 0.561894 0.125066 1.04297 0.125066H14.9867L14.9894 0.125001C15.2221 0.125319 15.4434 0.219056 15.605 0.381062ZM16.0727 3.31253L15.8593 3.09915V3.40092V6.97271C15.8593 7.59099 16.3622 8.0938 16.9804 8.0938H20.5522H20.854L20.6406 7.88041L16.0727 3.31253ZM1.91406 32.0078V32.1328H2.03906H21.9609H22.0859V32.0078V9.96098V9.83598H21.9609H16.9804C15.4017 9.83598 14.1172 8.55141 14.1172 6.97271V1.99225V1.86725H13.9922H2.03906H1.91406V1.99225V32.0078ZM14.9952 0.12479C14.9956 0.124769 14.9953 0.124793 14.9946 0.124831L14.9952 0.12479Z" fill="#009DDC" stroke="white" stroke-width="0.25"/>
<path d="M6.89453 15.0078C6.89453 15.4889 6.50453 15.8789 6.02344 15.8789C5.54235 15.8789 5.15234 15.4889 5.15234 15.0078C5.15234 14.5267 5.54235 14.1367 6.02344 14.1367C6.50453 14.1367 6.89453 14.5267 6.89453 15.0078Z" fill="#009DDC" stroke="white" stroke-width="0.25"/>
<path d="M10.0078 14.1367H17.9766C18.4576 14.1367 18.8477 14.5267 18.8477 15.0078C18.8477 15.4889 18.4576 15.8789 17.9766 15.8789H10.0078C9.52674 15.8789 9.13672 15.4889 9.13672 15.0078C9.13672 14.5267 9.52674 14.1367 10.0078 14.1367Z" fill="#009DDC" stroke="white" stroke-width="0.25"/>
<path d="M6.89453 18.9922C6.89453 19.4733 6.50453 19.8633 6.02344 19.8633C5.54235 19.8633 5.15234 19.4733 5.15234 18.9922C5.15234 18.5111 5.54235 18.1211 6.02344 18.1211C6.50453 18.1211 6.89453 18.5111 6.89453 18.9922Z" fill="#009DDC" stroke="white" stroke-width="0.25"/>
<path d="M10.0078 18.1211H17.9766C18.4576 18.1211 18.8477 18.5111 18.8477 18.9922C18.8477 19.4733 18.4576 19.8633 17.9766 19.8633H10.0078C9.52674 19.8633 9.13672 19.4733 9.13672 18.9922C9.13672 18.5111 9.52674 18.1211 10.0078 18.1211Z" fill="#009DDC" stroke="white" stroke-width="0.25"/>
<path d="M6.89453 22.9766C6.89453 23.4577 6.50453 23.8477 6.02344 23.8477C5.54235 23.8477 5.15234 23.4577 5.15234 22.9766C5.15234 22.4955 5.54235 22.1055 6.02344 22.1055C6.50453 22.1055 6.89453 22.4955 6.89453 22.9766Z" fill="#009DDC" stroke="white" stroke-width="0.25"/>
<path d="M10.0078 22.1055H17.9766C18.4576 22.1055 18.8477 22.4955 18.8477 22.9766C18.8477 23.4576 18.4576 23.8477 17.9766 23.8477H10.0078C9.52674 23.8477 9.13672 23.4576 9.13672 22.9766C9.13672 22.4955 9.52674 22.1055 10.0078 22.1055Z" fill="#009DDC" stroke="white" stroke-width="0.25"/>
<path d="M6.89453 26.9609C6.89453 27.442 6.50453 27.832 6.02344 27.832C5.54235 27.832 5.15234 27.442 5.15234 26.9609C5.15234 26.4798 5.54235 26.0898 6.02344 26.0898C6.50453 26.0898 6.89453 26.4798 6.89453 26.9609Z" fill="#009DDC" stroke="white" stroke-width="0.25"/>
<path d="M10.0078 26.0898H17.9766C18.4576 26.0898 18.8477 26.4799 18.8477 26.9609C18.8477 27.442 18.4576 27.832 17.9766 27.832H10.0078C9.52674 27.832 9.13672 27.442 9.13672 26.9609C9.13672 26.4799 9.52674 26.0898 10.0078 26.0898Z" fill="#009DDC" stroke="white" stroke-width="0.25"/>
</svg>
