<svg width="36" height="36" viewBox="0 0 36 36" fill="none" xmlns="http://www.w3.org/2000/svg">
<g clip-path="url(#clip0)">
<path d="M22.7764 25.9411C22.7764 23.508 24.756 21.5283 27.1892 21.5283C29.6224 21.5283 31.602 23.508 31.602 25.9411C31.602 28.3743 29.6228 30.354 27.1892 30.354C24.756 30.354 22.7764 28.3743 22.7764 25.9411ZM24.7953 25.9411C24.7953 27.2615 25.8689 28.3351 27.1892 28.3351C28.5095 28.3351 29.5831 27.2615 29.5831 25.9411C29.5831 24.6208 28.5095 23.5472 27.1892 23.5472C25.8689 23.5472 24.7953 24.6208 24.7953 25.9411Z" fill="#009DDC" stroke="white" stroke-width="0.25"/>
<path d="M7.27246 25.9411C7.27246 23.508 9.25211 21.5283 11.6853 21.5283C14.1185 21.5283 16.0981 23.508 16.0981 25.9411C16.0981 28.3743 14.1185 30.354 11.6853 30.354C9.25211 30.354 7.27246 28.3743 7.27246 25.9411ZM9.29137 25.9411C9.29137 27.2615 10.365 28.3351 11.6853 28.3351C13.0056 28.3351 14.0792 27.2615 14.0792 25.9411C14.0792 24.6208 13.0052 23.5472 11.6853 23.5472C10.365 23.5472 9.29137 24.6208 9.29137 25.9411Z" fill="#009DDC" stroke="white" stroke-width="0.25"/>
<path d="M28.6427 10.0026L28.6081 9.93371H28.5311H23.3809V7.91479H29.2307C29.6123 7.91479 29.9612 8.12983 30.1329 8.47074L33.48 15.1278L31.6757 16.0351L28.6427 10.0026Z" fill="#009DDC" stroke="white" stroke-width="0.25"/>
<path d="M15.3271 24.9695H23.6612V26.9884H15.3271V24.9695Z" fill="#009DDC" stroke="white" stroke-width="0.25"/>
<path d="M4.34829 24.9695H8.28101C8.83861 24.9695 9.2905 25.4213 9.2905 25.9789C9.2905 26.5364 8.83866 26.9883 8.28108 26.9883H4.34829C3.79076 26.9883 3.33887 26.5365 3.33887 25.9789C3.33887 25.4214 3.7907 24.9695 4.34829 24.9695Z" fill="#009DDC" stroke="white" stroke-width="0.25"/>
<path d="M33.431 15.1118L33.4311 15.1119L35.6625 17.9858C35.6626 17.9858 35.6626 17.9859 35.6626 17.9859C35.7998 18.1629 35.8745 18.3809 35.8745 18.605V25.9788C35.8745 26.5364 35.4226 26.9883 34.865 26.9883H30.5919C30.0344 26.9883 29.5825 26.5364 29.5825 25.9788C29.5825 25.4213 30.0344 24.9694 30.5919 24.9694H33.7306H33.8556V24.8444V18.9936V18.9508L33.8294 18.917L32.1772 16.7888L32.1397 16.7404H32.0785H23.2558C22.6983 16.7404 22.2464 16.2886 22.2464 15.731V7.78984V7.66484H22.1214H4.34829C3.79077 7.66484 3.33887 7.21294 3.33887 6.65542C3.33887 6.09789 3.7907 5.646 4.34829 5.646H23.2559C23.8134 5.646 24.2653 6.09783 24.2653 6.65542V14.5966V14.7216H24.3903H32.634C32.9461 14.7216 33.2404 14.8656 33.431 15.1118Z" fill="#009DDC" stroke="white" stroke-width="0.25"/>
<path d="M9.21484 20.2311V20.2311C9.21484 20.7886 8.763 21.2405 8.20541 21.2405H2.98696C2.42944 21.2405 1.97754 20.7887 1.97754 20.2311C1.97754 19.6736 2.42938 19.2217 2.98696 19.2217H8.20548C8.76301 19.2217 9.2149 19.6736 9.21484 20.2311Z" fill="#009DDC" stroke="white" stroke-width="0.25"/>
<path d="M1.13442 14.7593H10.8151C11.3727 14.7593 11.8245 15.2112 11.8245 15.7688C11.8245 16.3263 11.3727 16.7782 10.8151 16.7782H1.13442C0.576898 16.7782 0.125 16.3264 0.125 15.7688C0.125 15.2112 0.576908 14.7593 1.13442 14.7593Z" fill="#009DDC" stroke="white" stroke-width="0.25"/>
<path d="M2.98696 10.2974H12.6677C13.2253 10.2974 13.6771 10.7493 13.6771 11.3068C13.6771 11.8643 13.2252 12.3162 12.6677 12.3162H2.98696C2.42944 12.3162 1.97754 11.8644 1.97754 11.3068C1.97754 10.7493 2.42938 10.2974 2.98696 10.2974Z" fill="#009DDC" stroke="white" stroke-width="0.25"/>
</g>
<defs>
<clipPath id="clip0">
<rect width="36" height="36" fill="white"/>
</clipPath>
</defs>
</svg>
