<svg width="73" height="73" viewBox="0 0 73 73" fill="none" xmlns="http://www.w3.org/2000/svg">
<path d="M4.19727 29.834V26.0566H12.0809V29.834H4.19727Z" fill="white" stroke="#009DDC" stroke-width="0.5"/>
<path d="M4.19727 46.9434V43.166H12.0809V46.9434H4.19727Z" fill="white" stroke="#009DDC" stroke-width="0.5"/>
<path d="M0.25 38.3887V34.6113H12.0816V38.3887H0.25Z" fill="white" stroke="#009DDC" stroke-width="0.5"/>
<path d="M16.8584 36.5C16.8584 21.091 29.395 8.55444 44.8039 8.55444C60.213 8.55444 72.7496 21.091 72.7496 36.5C72.7496 51.9089 60.213 64.4455 44.8039 64.4455C29.3949 64.4455 16.8584 51.9089 16.8584 36.5ZM20.6357 36.5C20.6357 49.8265 31.4774 60.6682 44.8039 60.6682C58.1306 60.6682 68.9723 49.8265 68.9723 36.5C68.9723 23.1734 58.1306 12.3318 44.8039 12.3318C31.4774 12.3318 20.6357 23.1734 20.6357 36.5Z" fill="white" stroke="#009DDC" stroke-width="0.5"/>
<path d="M45.9355 37.5628V37.695L46.0448 37.7694L54.9921 43.8666L52.8648 46.988L42.1582 39.6918V23.9974H45.9355V37.5628Z" fill="white" stroke="#009DDC" stroke-width="0.5"/>
</svg>
