<svg width="71" height="71" viewBox="0 0 71 71" fill="none" xmlns="http://www.w3.org/2000/svg">
<path d="M66.1925 24.7457H65.1033V18.6676C65.1033 16.6769 63.4825 15.0574 61.4904 15.0574H39.7007C37.7086 15.0574 36.0879 16.6769 36.0879 18.6745C36.0879 18.6817 36.0879 18.6889 36.0881 18.6958L36.0883 26.1789C36.0883 26.9446 36.7092 27.5656 37.4751 27.5656H39.9509C41.0725 27.5656 41.9851 28.4762 41.9851 29.5956C41.9851 30.715 41.0725 31.6256 39.9509 31.6256H37.4751C36.7092 31.6256 36.0883 32.2466 36.0883 33.0123V40.4701C36.0883 40.4782 36.0883 40.4862 36.0885 40.4942C36.0943 40.8269 36.1459 41.1492 36.2373 41.4547C35.923 41.3651 35.5915 41.317 35.2488 41.3168H27.775C27.0091 41.3168 26.3882 41.9378 26.3882 42.7036V45.1734C26.3882 46.2927 25.4756 47.2035 24.3541 47.2035C23.2325 47.2035 22.32 46.2928 22.32 45.1734V42.7036C22.32 41.9378 21.6992 41.3168 20.9333 41.3168H13.4582C11.6237 41.3175 10.0814 42.6926 9.87048 44.5154C9.86438 44.5684 9.86133 44.6217 9.86133 44.6748V66.9545C9.86133 67.0079 9.86438 67.0611 9.87048 67.114C10.0813 68.9342 11.6241 70.3066 13.4593 70.3066H35.249C36.1033 70.3066 36.8893 70.0087 37.5085 69.5116C38.1186 69.9805 38.8801 70.2602 39.7009 70.2602H61.4905C63.4827 70.2602 65.1035 68.6406 65.1035 66.65V62.4549C65.1035 61.6891 64.4826 61.0682 63.7168 61.0682C62.9509 61.0682 62.33 61.6891 62.33 62.4549V66.65C62.33 67.1113 61.9534 67.4867 61.4905 67.4867H39.7007C39.2489 67.4867 38.8745 67.1231 38.8618 66.6745V60.6183H39.9509C42.6019 60.6183 44.7585 58.4635 44.7585 55.8148C44.7585 53.1662 42.6019 51.0114 39.9509 51.0114H38.8618V44.9333C38.8618 44.9165 38.8616 44.8998 38.8614 44.8832C38.8633 44.42 39.2391 44.044 39.7007 44.044H45.7879V45.127C45.7879 47.7758 47.9445 49.9306 50.5955 49.9306C53.2465 49.9306 55.4031 47.7758 55.4031 45.127V44.044H61.4902C61.9531 44.044 62.3298 44.4221 62.3298 44.8868V49.9171C62.3298 50.6829 62.9506 51.3039 63.7165 51.3039C64.4824 51.3039 65.1032 50.6829 65.1032 49.9171V44.8868C65.1032 44.0466 64.8155 43.2724 64.3334 42.6578C64.8155 42.0436 65.1032 41.2701 65.1032 40.4306V34.3525H66.1923C68.8433 34.3525 70.9999 32.1976 70.9999 29.549C70.9999 26.9004 68.8435 24.7457 66.1925 24.7457ZM39.9509 53.7848C41.0725 53.7848 41.9851 54.6955 41.9851 55.8148C41.9851 56.9342 41.0725 57.8449 39.9509 57.8449H37.4751C36.7092 57.8449 36.0883 58.4658 36.0883 59.2316V66.6964C36.0883 67.1578 35.7117 67.5332 35.2488 67.5332H13.4593C13.0534 67.5332 12.7091 67.2458 12.6348 66.8554V44.7739C12.7092 44.3802 13.0536 44.0904 13.4593 44.0903H19.5466V45.1734C19.5466 47.8221 21.7032 49.9769 24.3541 49.9769C27.0051 49.9769 29.1617 47.8221 29.1617 45.1734V44.0903H35.2491C35.7064 44.0904 36.0795 44.4598 36.0882 44.917L36.0883 52.3981C36.0883 53.1639 36.7092 53.7848 37.4751 53.7848H39.9509ZM66.1925 31.5792H63.7166C62.9507 31.5792 62.3299 32.2001 62.3299 32.9659V40.4307C62.3299 40.8939 61.9533 41.2707 61.4904 41.2707H54.0165C53.2506 41.2707 52.6298 41.8916 52.6298 42.6574V45.1271C52.6298 46.2465 51.7172 47.1573 50.5956 47.1573C49.4741 47.1573 48.5615 46.2466 48.5615 45.1271V42.6574C48.5615 41.8916 47.9406 41.2707 47.1747 41.2707H39.7009C39.2491 41.2707 38.8747 40.9057 38.8619 40.4553V34.3991H39.951C42.602 34.3991 44.7587 32.2442 44.7587 29.5956C44.7587 26.947 42.602 24.7921 39.951 24.7921H38.8619V18.714L38.8615 18.6676C38.8615 18.2062 39.238 17.8308 39.7009 17.8308H61.4905C61.9534 17.8308 62.33 18.2062 62.33 18.6676V26.1324C62.33 26.8982 62.9509 27.5191 63.7168 27.5191H66.1926C67.3142 27.5191 68.2268 28.4296 68.2268 29.5491C68.2267 30.6684 67.314 31.5792 66.1925 31.5792Z" fill="white"/>
<path d="M63.7172 57.5986C63.138 57.5986 62.607 57.2229 62.4116 56.6785C62.2187 56.141 62.3847 55.5236 62.8201 55.1544C63.2744 54.7691 63.9427 54.7195 64.4488 55.0339C64.9329 55.3345 65.1885 55.9237 65.0761 56.4823C64.9474 57.122 64.3712 57.5986 63.7172 57.5986Z" fill="white"/>
<path d="M14.2628 19.3344C13.9263 19.3344 13.5996 19.2118 13.345 18.9872L10.4786 16.4561C9.90451 15.9493 9.85015 15.0727 10.357 14.4988C10.864 13.9248 11.7404 13.8705 12.3143 14.3772L14.0684 15.9261L17.8311 11.0346C18.2982 10.4275 19.1688 10.3139 19.7757 10.781C20.3827 11.2479 20.4963 12.1186 20.0294 12.7254L15.3619 18.7932C15.1279 19.0976 14.7779 19.2913 14.3955 19.328C14.3513 19.3322 14.3069 19.3344 14.2628 19.3344Z" fill="white"/>
<path d="M14.4929 35.5664C11.8419 35.5664 9.68526 33.4116 9.68526 30.7628V29.6798H3.59798C1.76294 29.6798 0.220072 28.306 0.00915234 26.4841C0.00305078 26.4314 0 26.3782 0 26.3249V4.04534C0 3.99195 0.00305078 3.9387 0.00915234 3.88586C0.219934 2.06579 1.7628 0.693359 3.59798 0.693359H25.3876C27.3798 0.693359 29.0005 2.31291 29.0005 4.30354V10.3817H30.0896C32.7404 10.3817 34.8971 12.5365 34.8971 15.1851C34.8971 17.8338 32.7404 19.9886 30.0896 19.9886H29.0005V26.0667C29.0005 28.059 27.3797 29.6801 25.3876 29.6801H19.3004V30.7631C19.3004 33.4116 17.1437 35.5664 14.4929 35.5664ZM2.77344 26.2258C2.8479 26.6179 3.19209 26.9065 3.59798 26.9065H11.0718C11.8377 26.9065 12.4586 27.5275 12.4586 28.2932V30.763C12.4586 31.8823 13.3712 32.7931 14.4927 32.7931C15.6143 32.7931 16.5268 31.8825 16.5268 30.763V28.2932C16.5268 27.5275 17.1476 26.9065 17.9135 26.9065H25.3875C25.8504 26.9065 26.2269 26.5297 26.2269 26.0666V18.6017C26.2269 17.836 26.8477 17.215 27.6136 17.215H30.0894C31.211 17.215 32.1235 16.3045 32.1235 15.185C32.1235 14.0658 31.211 13.155 30.0894 13.155H27.6137C26.8478 13.155 26.227 12.534 26.227 11.7682V4.30354C26.227 3.84218 25.8505 3.4668 25.3876 3.4668H3.59798C3.19195 3.4668 2.84777 3.75413 2.77344 4.14463V26.2258Z" fill="white"/>
</svg>
