<svg width="21" height="21" viewBox="0 0 21 21" fill="none" xmlns="http://www.w3.org/2000/svg">
<path d="M19.8887 18.9795L14.1182 13.1719C14.6501 12.5286 15.0706 11.805 15.3799 11.001C15.6891 10.1846 15.8438 9.32487 15.8438 8.42188C15.8438 7.39518 15.6458 6.43034 15.25 5.52734C14.8665 4.62435 14.3346 3.83887 13.6543 3.1709C12.9863 2.50293 12.2008 1.97721 11.2979 1.59375C10.3949 1.19792 9.4362 1 8.42188 1C7.39518 1 6.43034 1.19792 5.52734 1.59375C4.62435 1.97721 3.83268 2.50293 3.15234 3.1709C2.48438 3.83887 1.95866 4.62435 1.5752 5.52734C1.19173 6.43034 1 7.39518 1 8.42188C1 9.44857 1.19173 10.4134 1.5752 11.3164C1.95866 12.2194 2.48438 13.0049 3.15234 13.6729C3.83268 14.3408 4.62435 14.8727 5.52734 15.2686C6.43034 15.652 7.39518 15.8438 8.42188 15.8438C9.34961 15.8438 10.2279 15.6829 11.0566 15.3613C11.8854 15.0397 12.6276 14.5944 13.2832 14.0254L19.0352 19.8145C19.1589 19.9382 19.3011 20 19.4619 20C19.6227 20 19.765 19.9382 19.8887 19.8145C20 19.7031 20.0557 19.5609 20.0557 19.3877C20.0557 19.2269 20 19.0908 19.8887 18.9795ZM8.42188 14.6748C7.55599 14.6748 6.73958 14.514 5.97266 14.1924C5.2181 13.8584 4.55632 13.4069 3.9873 12.8379C3.43066 12.2689 2.98535 11.6071 2.65137 10.8525C2.32975 10.098 2.16895 9.28776 2.16895 8.42188C2.16895 7.55599 2.32975 6.74577 2.65137 5.99121C2.98535 5.23665 3.43066 4.57487 3.9873 4.00586C4.55632 3.43685 5.2181 2.99154 5.97266 2.66992C6.73958 2.33594 7.55599 2.16895 8.42188 2.16895C9.27539 2.16895 10.0794 2.33594 10.834 2.66992C11.6009 2.99154 12.2627 3.43685 12.8193 4.00586C13.3883 4.57487 13.8337 5.23665 14.1553 5.99121C14.4893 6.74577 14.6562 7.55599 14.6562 8.42188C14.6562 9.28776 14.4893 10.098 14.1553 10.8525C13.8337 11.6071 13.3883 12.2689 12.8193 12.8379C12.2627 13.4069 11.6009 13.8584 10.834 14.1924C10.0794 14.514 9.27539 14.6748 8.42188 14.6748Z" fill="#003D79" stroke="#003D79"/>
</svg>
