<svg width="179" height="65" viewBox="0 0 179 65" fill="none" xmlns="http://www.w3.org/2000/svg">
<path d="M0.892441 50.9616C0.94227 50.9616 0.98304 50.9616 0.98304 51.0522C1.0345 51.5386 1.204 52.0051 1.4768 52.4112C1.64839 52.6641 1.88031 52.8703 2.1516 53.011C2.42288 53.1518 2.72497 53.2228 3.03056 53.2175C3.62398 53.2175 4.57527 52.837 4.57527 51.9038C4.57527 50.9706 4.37595 50.6309 2.7633 50.0511C2.11598 49.8036 1.51203 49.455 0.97398 49.0182C0.755765 48.7983 0.587409 48.534 0.480331 48.2432C0.373253 47.9525 0.329957 47.6421 0.35338 47.3331C0.33105 46.9849 0.406089 46.6373 0.570098 46.3293C0.734107 46.0213 0.980611 45.765 1.28201 45.5891C1.78868 45.197 2.4176 44.9964 3.05774 45.0229C3.61563 45.0007 4.17288 45.0805 4.7021 45.2584C4.7492 45.2829 4.80328 45.2904 4.85525 45.2796C4.90722 45.2689 4.95392 45.2406 4.98749 45.1995L5.14604 45.0455C5.17049 45.0215 5.19956 45.0027 5.23148 44.9903C5.2634 44.9778 5.29752 44.9719 5.33176 44.973C5.41783 44.973 5.44501 45.1044 5.45407 45.1769L5.65339 47.2018C5.65339 47.2516 5.63074 47.2606 5.5945 47.2742L5.3227 47.3558C5.25928 47.3829 5.19587 47.3558 5.15963 47.2742C4.99123 46.8156 4.73069 46.3962 4.39407 46.0421C4.23784 45.8725 4.0458 45.7397 3.8319 45.6536C3.618 45.5674 3.38759 45.5299 3.1574 45.5438C2.85197 45.5377 2.55459 45.642 2.3199 45.8375C2.08522 46.0331 1.929 46.3068 1.87996 46.6083C1.85147 46.8027 1.86546 47.001 1.92099 47.1895C1.97651 47.3779 2.07225 47.5521 2.20159 47.7C2.68261 48.0724 3.23917 48.3353 3.83236 48.4701C4.4219 48.6468 4.96285 48.9568 5.4133 49.3761C5.65798 49.596 5.84712 49.8708 5.96522 50.1778C6.08332 50.4849 6.12704 50.8156 6.09279 51.1428C6.09892 51.4968 6.03203 51.8483 5.8963 52.1754C5.76057 52.5025 5.55891 52.798 5.30389 53.0437C5.04887 53.2894 4.74596 53.4799 4.41407 53.6033C4.08218 53.7267 3.72841 53.7804 3.37484 53.7611C2.60323 53.8247 1.83087 53.6475 1.16424 53.2537C1.08217 53.1858 0.983797 53.1405 0.878852 53.1224C0.806373 53.1224 0.756544 53.2039 0.679535 53.3217C0.602526 53.4395 0.543638 53.4666 0.457569 53.4666C0.371501 53.4666 0.271842 53.4077 0.285432 53.2764L0.484748 51.0114C0.484748 50.9253 0.534577 50.9253 0.579876 50.9253L0.892441 50.9616Z" fill="#009DDC"/>
<path d="M9.33244 51.8493C9.33244 52.8187 9.71749 53.0316 10.0119 53.0316C10.2351 53.0438 10.4574 52.9953 10.6552 52.8912C10.6914 52.8686 10.7277 52.8685 10.7639 52.9365L10.85 53.1177C10.8907 53.1766 10.85 53.2355 10.8047 53.2717C10.2895 53.6021 9.68594 53.768 9.07424 53.7474C8.74808 53.7779 8.42296 53.6792 8.16882 53.4725C7.91468 53.2658 7.75182 52.9676 7.71526 52.6421C7.71526 52.2253 7.74244 51.3284 7.74244 50.8754V49.3126H7.06295C6.95423 49.3126 6.86816 49.2627 6.86816 49.145C6.86816 49.0272 6.94064 48.9456 7.13996 48.8505C7.83944 48.4128 8.479 47.8859 9.04253 47.2832C9.07036 47.2481 9.10539 47.2195 9.14525 47.1992C9.18511 47.1789 9.22886 47.1673 9.27355 47.1654C9.29637 47.1646 9.31909 47.1687 9.34016 47.1775C9.36123 47.1863 9.38015 47.1995 9.39563 47.2163C9.41112 47.2331 9.4228 47.253 9.42987 47.2747C9.43695 47.2964 9.43925 47.3194 9.43663 47.342L9.3868 48.6014H10.9406C11.0176 48.6014 11.0538 48.6603 11.0266 48.7056L10.9043 49.2174C10.9043 49.2627 10.8681 49.3126 10.7956 49.3126H9.35962C9.33244 49.7973 9.33244 50.368 9.33244 50.9116V51.8493Z" fill="#009DDC"/>
<path d="M13.9755 49.7973C14.0017 49.5647 13.9367 49.3309 13.7943 49.145C13.641 49.0418 13.4578 48.9924 13.2734 49.0046C13.0402 49.0003 12.8112 49.0666 12.6165 49.1949C12.4353 49.3126 12.5803 49.512 12.5803 49.8925C12.5803 50.273 12.2722 50.5674 11.7785 50.5674C11.7151 50.5784 11.6501 50.5758 11.5879 50.5597C11.5256 50.5437 11.4674 50.5145 11.4173 50.4742C11.3672 50.434 11.3262 50.3835 11.2971 50.3261C11.268 50.2688 11.2514 50.2059 11.2485 50.1416C11.2441 49.987 11.2725 49.8331 11.3319 49.6903C11.3912 49.5474 11.4801 49.4187 11.5928 49.3126C12.2559 48.7495 13.0964 48.4383 13.9664 48.4338C14.7546 48.4338 14.9675 48.5516 15.2258 48.7781C15.3543 48.9096 15.4519 49.0681 15.5114 49.2421C15.571 49.416 15.591 49.6011 15.57 49.7838L15.5972 52.1438C15.5972 52.7599 15.647 52.9502 15.8781 52.9502C15.9512 52.9466 16.0223 52.9254 16.0854 52.8883C16.1486 52.8512 16.2017 52.7994 16.2405 52.7373C16.2858 52.6648 16.3265 52.6557 16.3628 52.6784L16.5349 52.7735C16.5847 52.7961 16.621 52.8324 16.5711 52.9366C16.4647 53.1781 16.2902 53.3834 16.069 53.5274C15.8477 53.6714 15.5894 53.7479 15.3254 53.7474C15.0779 53.7688 14.8301 53.7099 14.6188 53.5793C14.4074 53.4488 14.2438 53.2536 14.1522 53.0226H14.1114C13.8055 53.3028 13.4422 53.513 13.0469 53.6387C12.7528 53.724 12.4468 53.7607 12.1409 53.7474C11.6879 53.7474 11.3255 53.2944 11.3255 52.6557C11.3346 52.3346 11.4414 52.0238 11.6315 51.7648C11.8217 51.5058 12.0863 51.311 12.39 51.2061C12.9388 50.9867 13.4703 50.7262 13.98 50.427L13.9755 49.7973ZM13.9755 50.8981C13.373 51.2333 12.8657 51.41 12.8657 52.2254C12.8657 52.7735 13.1239 53 13.3957 53.0091C13.5229 53.0011 13.6452 52.9567 13.748 52.8812C13.8508 52.8057 13.9298 52.7023 13.9755 52.5832V50.8981Z" fill="#009DDC"/>
<path d="M19.6827 53.6159C19.5875 53.6159 19.0168 53.5797 17.9432 53.5797C17.2274 53.5797 16.7427 53.6159 16.6068 53.6159C16.548 53.6159 16.5117 53.5933 16.5117 53.4936V53.2581C16.5117 53.1901 16.548 53.1629 16.634 53.1629H17.087C17.2229 53.1629 17.309 53.1176 17.318 52.9274C17.3452 52.5695 17.3452 52.2026 17.3452 51.8719L17.318 50.214C17.318 49.8833 17.2456 49.6432 16.7292 49.4665C16.5933 49.4167 16.5797 49.3714 16.5797 49.2989V49.1675C16.5797 49.1313 16.6023 49.1087 16.7156 49.0724L18.5547 48.5062C18.6616 48.4633 18.7749 48.4388 18.8899 48.4337C18.9896 48.4337 19.0258 48.4926 19.0122 48.5787C19.0122 48.778 19.0122 49.5254 19.0122 50.5673V51.8357C19.0122 52.2887 19.0122 52.7417 19.0122 52.8549C19.0394 53.0814 19.0983 53.1629 19.2342 53.1629H19.6872C19.7823 53.1629 19.8095 53.1992 19.8095 53.2717V53.4936C19.7959 53.5797 19.7687 53.6159 19.6827 53.6159ZM17.993 47.5322C17.8768 47.539 17.7605 47.522 17.6511 47.4823C17.5417 47.4426 17.4416 47.3811 17.3568 47.3014C17.272 47.2217 17.2043 47.1255 17.158 47.0188C17.1116 46.9121 17.0874 46.797 17.087 46.6806C17.1176 46.4524 17.2338 46.2444 17.4122 46.0989C17.5906 45.9533 17.8177 45.8811 18.0474 45.8969C18.1561 45.8857 18.2659 45.8962 18.3706 45.9278C18.4752 45.9594 18.5725 46.0115 18.6568 46.0811C18.7411 46.1506 18.8107 46.2362 18.8616 46.3329C18.9125 46.4297 18.9437 46.5355 18.9533 46.6444C18.9511 46.7665 18.9242 46.887 18.8742 46.9985C18.8243 47.11 18.7523 47.2102 18.6625 47.2931C18.5728 47.3761 18.4673 47.44 18.3522 47.4811C18.2371 47.5222 18.115 47.5396 17.993 47.5322Z" fill="#009DDC"/>
<path d="M22.4148 52.6785C22.4148 53.0454 22.5371 53.1632 22.7999 53.1632H23.3027C23.3797 53.1632 23.3933 53.1994 23.3933 53.2719V53.5075C23.3933 53.5799 23.3933 53.6162 23.3299 53.6162C23.2664 53.6162 22.6866 53.5799 21.5768 53.5799C20.6255 53.5799 20.1046 53.6162 20.0321 53.6162C19.9596 53.6162 19.9551 53.5935 19.9551 53.4939V53.2719C19.9551 53.1904 19.9823 53.1632 20.091 53.1632H20.4534C20.494 53.17 20.5357 53.1676 20.5753 53.1562C20.615 53.1448 20.6515 53.1247 20.6824 53.0973C20.7132 53.07 20.7375 53.0361 20.7536 52.9981C20.7696 52.9601 20.7769 52.919 20.775 52.8778C20.8022 52.5471 20.8022 52.1349 20.8022 51.5188V50.5585C20.8333 50.3709 20.8018 50.1784 20.7126 50.0105C20.6233 49.8427 20.4813 49.7089 20.3084 49.6299L20.0955 49.5121C20.0004 49.4713 20.0004 49.4713 20.0004 49.4079V49.2992C20.0004 49.2539 20.023 49.2267 20.0955 49.204L21.8259 48.4792C21.8895 48.4535 21.9568 48.4382 22.0253 48.434C22.0635 48.436 22.0997 48.4518 22.1271 48.4784C22.1546 48.5051 22.1715 48.5408 22.1747 48.5789L22.2835 49.4849H22.3695C22.7546 48.7012 23.2755 48.3434 23.8418 48.3434C23.9309 48.3419 24.0194 48.359 24.1017 48.3935C24.1839 48.4281 24.258 48.4794 24.3194 48.5441C24.3807 48.6089 24.4279 48.6857 24.458 48.7696C24.4881 48.8536 24.5004 48.9429 24.4941 49.0319C24.4649 49.22 24.3694 49.3914 24.2248 49.5152C24.0802 49.639 23.8962 49.707 23.7059 49.7069C23.5481 49.7146 23.3914 49.6785 23.2529 49.6027C23.1577 49.5484 23.0499 49.5202 22.9403 49.5211C22.8722 49.5207 22.8055 49.5408 22.749 49.5788C22.6925 49.6168 22.6486 49.6709 22.6232 49.734C22.499 49.9469 22.4261 50.1857 22.4103 50.4316L22.4148 52.6785Z" fill="#009DDC"/>
<path d="M28.5297 52.6647C28.1002 52.2559 27.7582 51.7639 27.5246 51.2188C27.291 50.6737 27.1706 50.0868 27.1708 49.4938C27.1592 48.9001 27.2658 48.31 27.4843 47.7579C27.7028 47.2057 28.0289 46.7025 28.4437 46.2775C28.8684 45.8492 29.3779 45.5143 29.9395 45.2944C30.5012 45.0744 31.1026 44.9741 31.7052 45.0001C32.5592 44.9826 33.4066 45.1527 34.1876 45.4984C34.3598 45.5799 34.4232 45.5663 34.4458 45.4984L34.5455 45.204C34.5455 45.1315 34.5953 45.1315 34.781 45.1315C34.9668 45.1315 34.9894 45.1315 34.9894 45.3217C34.9894 45.512 35.2114 47.5595 35.2748 47.9174C35.2748 47.9989 35.2748 48.0578 35.2114 48.0714L34.9396 48.1439C34.8807 48.1665 34.8309 48.1167 34.7946 48.0125C34.5988 47.4094 34.2581 46.8635 33.8026 46.4225C33.5268 46.1373 33.1968 45.9103 32.8319 45.7547C32.467 45.5991 32.0747 45.5181 31.678 45.5165C29.8661 45.5165 29.1096 47.0929 29.1232 48.846C29.1232 49.5934 29.3451 51.0521 30.2194 51.9399C30.4604 52.2168 30.7565 52.4403 31.0888 52.5963C31.4211 52.7523 31.7822 52.8373 32.1492 52.8459C32.7001 52.8742 33.2501 52.774 33.7557 52.5531C34.2612 52.3321 34.7084 51.9966 35.0619 51.573C35.1253 51.4824 35.1887 51.4326 35.2476 51.4824L35.4605 51.6591C35.4968 51.6591 35.5104 51.7316 35.4605 51.7995C35.0565 52.3986 34.5123 52.89 33.8752 53.231C33.2382 53.572 32.5275 53.7524 31.8049 53.7564C30.1741 53.7564 29.3089 53.3306 28.5297 52.6647Z" fill="#009DDC"/>
<path d="M36.7606 52.8777C36.5332 52.6245 36.3581 52.3289 36.2454 52.0078C36.1327 51.6868 36.0845 51.3466 36.1037 51.0068C36.126 50.6211 36.2329 50.245 36.4169 49.9052C36.6008 49.5654 36.8574 49.2703 37.1683 49.0409C37.695 48.6363 38.3433 48.4223 39.0074 48.4338C39.3719 48.4201 39.7355 48.4791 40.077 48.6074C40.4184 48.7357 40.7308 48.9308 40.996 49.1813C41.272 49.4099 41.4921 49.6985 41.6397 50.0251C41.7873 50.3516 41.8584 50.7075 41.8477 51.0657C41.8306 51.7599 41.5486 52.4212 41.0595 52.9139C40.7776 53.1937 40.441 53.4121 40.0707 53.5555C39.7004 53.699 39.3045 53.7643 38.9077 53.7474C38.5066 53.7819 38.103 53.7211 37.7299 53.5699C37.3568 53.4188 37.0246 53.1816 36.7606 52.8777ZM39.9723 50.9842C39.9723 49.6252 39.4785 48.9321 38.9349 48.9321C38.8043 48.9181 38.6724 48.9408 38.554 48.9976C38.4356 49.0545 38.3353 49.1431 38.2645 49.2538C37.9489 49.8028 37.8068 50.4344 37.8568 51.0657C37.8226 51.6328 37.93 52.1994 38.1694 52.7146C38.2301 52.8768 38.3422 53.0146 38.4886 53.1071C38.635 53.1995 38.8077 53.2414 38.9802 53.2265C39.6461 53.2491 39.9587 52.2843 39.9587 50.9842H39.9723Z" fill="#009DDC"/>
<path d="M44.0086 48.5154C44.0977 48.4704 44.1946 48.4427 44.294 48.4338C44.3367 48.4336 44.3779 48.4492 44.4097 48.4777C44.4415 48.5062 44.4616 48.5454 44.4661 48.5879L44.5658 49.2628H44.6247C44.8345 48.9991 45.1021 48.7872 45.4069 48.6434C45.7116 48.4997 46.0454 48.428 46.3823 48.4338C46.6841 48.4181 46.9843 48.4874 47.2486 48.634C47.5129 48.7805 47.7307 48.9984 47.8772 49.2628H47.9361C48.1417 49.0222 48.3955 48.8273 48.681 48.6907C48.9666 48.5542 49.2776 48.479 49.594 48.4701C49.815 48.4448 50.0389 48.4727 50.2469 48.5515C50.4549 48.6303 50.6411 48.7577 50.7899 48.9231C51.1478 49.2673 51.3199 49.3761 51.3199 50.5493V51.4009C51.3199 51.8041 51.2837 52.4564 51.2746 52.7056C51.2746 53.0362 51.4332 53.1585 51.6325 53.1585H51.8771C51.9903 53.1585 52.013 53.1857 52.013 53.2673V53.4892C52.013 53.5753 52.013 53.6115 51.9269 53.6115C51.8408 53.6115 51.4966 53.5753 50.5906 53.5753C49.8522 53.5753 49.4083 53.6115 49.3222 53.6115C49.2361 53.6115 49.2226 53.5753 49.2226 53.4666V53.2673C49.2226 53.1857 49.2588 53.1585 49.295 53.1585H49.4445C49.5064 53.1587 49.566 53.1354 49.6114 53.0934C49.6568 53.0514 49.6846 52.9937 49.6891 52.932C49.7163 52.6603 49.7526 52.2344 49.7526 51.795V50.658C49.7526 49.9242 49.7163 49.675 49.5532 49.5074C49.4852 49.4127 49.3942 49.3369 49.2888 49.287C49.1835 49.237 49.0671 49.2147 48.9508 49.222C48.6641 49.251 48.3989 49.3868 48.2079 49.6026C48.0639 49.8238 47.9985 50.0871 48.0221 50.35V52.6965C48.0221 53.0408 48.0946 53.1495 48.2305 53.1495H48.457C48.5657 53.1495 48.5929 53.1767 48.5929 53.2582V53.4711C48.5929 53.5662 48.5657 53.6025 48.5023 53.6025C48.4389 53.6025 48.0946 53.5662 47.3426 53.5662C46.4367 53.5662 46.0108 53.6025 45.9338 53.6025C45.8568 53.6025 45.8478 53.5662 45.8478 53.4802V53.2673C45.8478 53.1767 45.8478 53.1495 45.9701 53.1495H46.1422C46.3189 53.1495 46.4412 52.9955 46.4412 52.3069V50.5538C46.4412 49.7385 46.3189 49.4621 46.1694 49.3353C46.0007 49.217 45.7941 49.1653 45.5896 49.1903C45.4563 49.1977 45.3262 49.2343 45.2088 49.2978C45.0913 49.3612 44.9893 49.4498 44.9101 49.5573C44.7385 49.8462 44.6684 50.1842 44.7108 50.5176V52.4292C44.7108 53.0317 44.8331 53.1495 44.969 53.1495H45.0822C45.1955 53.1495 45.2045 53.1767 45.2045 53.2582V53.4711C45.2045 53.5526 45.2045 53.6025 45.1049 53.6025C45.0052 53.6025 44.6519 53.5662 43.7867 53.5662C42.9214 53.5662 42.5636 53.6025 42.4639 53.6025C42.3643 53.6025 42.3643 53.5798 42.3643 53.4938V53.2582C42.3643 53.1631 42.3643 53.1495 42.5137 53.1495H42.858C42.9803 53.1495 43.08 53.0181 43.0936 52.855C43.1072 52.692 43.0936 52.3568 43.0936 52.0487V50.5538C43.0936 50.0329 43.003 49.8426 42.6949 49.6479L42.4503 49.5074C42.3869 49.4712 42.3643 49.444 42.3643 49.4078V49.2673C42.3651 49.2449 42.3724 49.2231 42.3853 49.2047C42.3981 49.1862 42.416 49.1718 42.4367 49.1632L44.0086 48.5154Z" fill="#009DDC"/>
<path d="M53.0682 50.4132C53.0682 50.0101 53.032 49.8334 52.6605 49.6432L52.3797 49.5027C52.3162 49.4665 52.2891 49.4393 52.2891 49.394V49.24C52.2891 49.2038 52.3162 49.1811 52.3797 49.1585L53.9742 48.565C54.0955 48.5057 54.2255 48.466 54.3592 48.4473C54.4317 48.4473 54.468 48.5288 54.5042 48.6964L54.5903 49.1494H54.6401C54.8428 48.9354 55.0864 48.7643 55.3563 48.646C55.6263 48.5278 55.9173 48.4648 56.212 48.4609C56.4963 48.4418 56.7812 48.4865 57.0461 48.5915C57.3109 48.6965 57.5491 48.8592 57.7431 49.0679C57.9738 49.2717 58.154 49.5263 58.2696 49.8117C58.3851 50.097 58.4328 50.4053 58.409 50.7122C58.409 52.5242 57.1633 53.7745 55.5914 53.7745C55.2786 53.7835 54.9681 53.7183 54.6854 53.5842V55.3962C54.6854 56.3565 54.8258 56.4154 55.1384 56.4154H55.4464C55.5461 56.4154 55.5597 56.4652 55.5597 56.5332V56.7597C55.5597 56.8321 55.5325 56.8639 55.4464 56.8639C55.3603 56.8639 54.9662 56.8321 53.8655 56.8321C52.9595 56.8321 52.5337 56.8639 52.434 56.8639C52.3344 56.8639 52.3208 56.8321 52.3208 56.7461V56.5105C52.3208 56.4516 52.3479 56.4154 52.4703 56.4154H52.7556C52.964 56.4154 53.0501 56.2976 53.0773 56.1074C53.0999 55.8492 53.0999 55.4913 53.0999 54.8163L53.0682 50.4132ZM54.6763 52.3203C54.678 52.4523 54.7084 52.5822 54.7656 52.7012C54.8227 52.8201 54.9051 52.9251 55.007 53.0089C55.218 53.1787 55.4791 53.2742 55.7499 53.2807C56.2709 53.2807 56.7284 52.8277 56.7284 51.7043C56.7284 50.9614 56.6378 49.2536 55.4419 49.2536C55.2997 49.2533 55.1588 49.2812 55.0274 49.3357C54.896 49.3901 54.7767 49.47 54.6763 49.5707V52.3203Z" fill="#009DDC"/>
<path d="M59.6873 52.8776C59.46 52.6245 59.2849 52.3288 59.1722 52.0078C59.0594 51.6867 59.0113 51.3465 59.0305 51.0068C59.0536 50.6212 59.1609 50.2455 59.3449 49.9058C59.5288 49.5662 59.7848 49.2709 60.095 49.0408C60.6217 48.6362 61.2701 48.4222 61.9342 48.4338C62.2988 48.4185 62.6629 48.4768 63.0045 48.6052C63.3462 48.7336 63.6585 48.9295 63.9228 49.1812C64.1987 49.4099 64.4189 49.6984 64.5665 50.025C64.714 50.3516 64.7852 50.7075 64.7744 51.0657C64.7574 51.7598 64.4754 52.4211 63.9862 52.9139C63.705 53.1933 63.3692 53.4115 62.9997 53.5549C62.6302 53.6984 62.235 53.7639 61.839 53.7474C61.4372 53.7818 61.033 53.721 60.6591 53.5699C60.2853 53.4188 59.9523 53.1816 59.6873 52.8776ZM62.899 50.9841C62.899 49.6252 62.4053 48.9321 61.8617 48.9321C61.7318 48.9184 61.6006 48.9413 61.483 48.9981C61.3653 49.0549 61.2659 49.1435 61.1958 49.2537C60.8781 49.8019 60.7358 50.4342 60.7881 51.0657C60.7525 51.6323 60.8583 52.199 61.0961 52.7146C61.157 52.8775 61.2699 53.016 61.4172 53.1085C61.5646 53.201 61.7383 53.2424 61.9115 53.2264C62.5819 53.2491 62.899 52.2842 62.899 50.9841Z" fill="#009DDC"/>
<path d="M67.6181 49.0862H67.7178C67.8883 48.9097 68.0894 48.7654 68.3112 48.6604C68.6614 48.4946 69.047 48.4173 69.434 48.4355C69.8211 48.4537 70.1977 48.5667 70.5309 48.7646C70.7371 48.9203 70.8976 49.1286 70.9957 49.3677C71.0937 49.6068 71.1256 49.8679 71.088 50.1236V51.3783C71.088 51.7815 71.0654 52.3387 71.0382 52.7373C71.011 53.136 71.2239 53.1495 71.3372 53.1495H71.6679C71.7811 53.1495 71.8038 53.1858 71.8038 53.2583V53.4712C71.8038 53.5527 71.7811 53.6025 71.7086 53.6025C71.6362 53.6025 71.2557 53.5663 70.25 53.5663C69.4346 53.5663 69.0405 53.6025 68.9499 53.6025C68.8593 53.6025 68.8503 53.5663 68.8503 53.4712V53.2583C68.8503 53.1767 68.891 53.1495 69.0133 53.1495H69.1492C69.2353 53.1495 69.3486 53.0907 69.3712 52.8777C69.4277 52.4696 69.4519 52.0576 69.4437 51.6456V50.3772C69.4437 49.9242 69.4074 49.6162 69.1492 49.3942C69.0679 49.3192 68.9721 49.2616 68.8678 49.225C68.7634 49.1884 68.6526 49.1735 68.5422 49.1813C68.3113 49.1838 68.0885 49.2671 67.9126 49.4169C67.8137 49.5441 67.7412 49.6897 67.6992 49.8453C67.6572 50.0008 67.6466 50.1632 67.668 50.3229L67.6408 52.7554C67.6408 52.9683 67.7268 53.145 67.8401 53.145H68.0168C68.1164 53.145 68.1436 53.1812 68.1436 53.2628V53.4893C68.1436 53.5618 68.1164 53.598 68.053 53.598C67.9896 53.598 67.6362 53.5618 66.8209 53.5618C66.0055 53.5618 65.548 53.598 65.4619 53.598C65.3758 53.598 65.3758 53.5618 65.3758 53.4893V53.2537C65.3758 53.1813 65.3985 53.145 65.4981 53.145H65.6839C65.8198 53.145 66.0281 53.1088 66.0281 52.9095V50.2776C66.0285 50.1255 65.981 49.9772 65.8923 49.8536C65.8037 49.7301 65.6785 49.6375 65.5344 49.589L65.4211 49.5437C65.3949 49.5334 65.3726 49.5153 65.3572 49.4917C65.3418 49.4682 65.334 49.4405 65.335 49.4124V49.3036C65.335 49.2448 65.3849 49.2085 65.4483 49.1859L67.0292 48.4973C67.1188 48.4536 67.2154 48.4259 67.3146 48.4158C67.3548 48.4192 67.3929 48.4349 67.4237 48.4609C67.4546 48.4868 67.4766 48.5217 67.4868 48.5607L67.6181 49.0862Z" fill="#009DDC"/>
<path d="M73.8567 50.6266V50.9482C73.8567 52.1803 74.586 52.7828 75.4875 52.7828C75.75 52.7963 76.0117 52.7442 76.249 52.6311C76.4863 52.518 76.6917 52.3475 76.8465 52.135C76.8499 52.1222 76.8566 52.1105 76.866 52.1011C76.8753 52.0916 76.8869 52.0847 76.8997 52.0811C76.9124 52.0774 76.9259 52.0772 76.9388 52.0803C76.9517 52.0834 76.9636 52.0897 76.9733 52.0988L77.1817 52.203C77.2315 52.2256 77.2677 52.2845 77.1545 52.4884C76.9282 52.8671 76.6087 53.1816 76.2266 53.402C75.8444 53.6224 75.4122 53.7414 74.9711 53.7477C74.1783 53.7477 73.526 53.6163 73.1183 53.1905C72.8315 52.9361 72.6055 52.6203 72.4573 52.2666C72.3091 51.913 72.2424 51.5305 72.2622 51.1475C72.2417 50.5208 72.4385 49.9062 72.8194 49.408C73.0708 49.0819 73.3985 48.8225 73.7737 48.6527C74.1489 48.4828 74.5601 48.4078 74.9711 48.4341C75.245 48.4205 75.5188 48.463 75.7757 48.5592C76.0325 48.6553 76.267 48.8029 76.4648 48.993C76.6625 49.1831 76.8192 49.4116 76.9254 49.6644C77.0315 49.9173 77.0848 50.1892 77.082 50.4635C77.082 50.613 76.9733 50.6266 76.7015 50.6266H73.8567ZM75.0571 50.1736C75.3289 50.1736 75.4513 50.1147 75.4513 49.9335C75.4513 49.4126 75.2293 48.9052 74.8442 48.9052C74.2644 48.9052 73.9383 49.3582 73.8703 50.1736H75.0571Z" fill="#009DDC"/>
<path d="M79.9213 49.0862H80.0209C80.1915 48.9097 80.3925 48.7654 80.6143 48.6604C80.9653 48.4946 81.3516 48.4173 81.7394 48.4355C82.1272 48.4537 82.5046 48.5667 82.8385 48.7646C83.0437 48.9213 83.2034 49.1297 83.3013 49.3685C83.3992 49.6074 83.4318 49.868 83.3957 50.1236V51.3783C83.3957 51.7815 83.3685 52.3387 83.3414 52.7373C83.3142 53.136 83.5271 53.1495 83.6403 53.1495H83.9755C84.0843 53.1495 84.1114 53.1858 84.1114 53.2583V53.4712C84.1114 53.5527 84.0843 53.6025 84.0118 53.6025C83.9393 53.6025 83.5588 53.5663 82.5531 53.5663C81.7378 53.5663 81.3437 53.6025 81.2576 53.6025C81.1715 53.6025 81.1579 53.5663 81.1579 53.4712V53.2583C81.1579 53.1767 81.1942 53.1495 81.3165 53.1495H81.4524C81.5384 53.1495 81.6517 53.0907 81.6743 52.8777C81.7328 52.4697 81.7585 52.0577 81.7514 51.6456V50.3772C81.7514 49.9242 81.7151 49.6162 81.4524 49.3942C81.3718 49.3196 81.2767 49.2622 81.1731 49.2256C81.0695 49.1889 80.9595 49.1739 80.8499 49.1813C80.6174 49.1827 80.3928 49.2661 80.2157 49.4169C80.1169 49.5441 80.0443 49.6897 80.0023 49.8453C79.9603 50.0008 79.9497 50.1632 79.9711 50.3229L79.9439 52.7554C79.9439 52.9683 80.0345 53.145 80.1432 53.145H80.3063C80.4014 53.145 80.4286 53.1812 80.4286 53.2628V53.4893C80.4286 53.5618 80.4014 53.598 80.3425 53.598C80.2837 53.598 79.9213 53.5618 79.1059 53.5618C78.2905 53.5618 77.833 53.598 77.7469 53.598C77.6608 53.598 77.6608 53.5618 77.6608 53.4893V53.2537C77.6608 53.1813 77.6835 53.145 77.7831 53.145H77.9825C78.1184 53.145 78.3267 53.1088 78.3267 52.9095V50.2776C78.3271 50.1255 78.2795 49.9772 78.1909 49.8536C78.1023 49.7301 77.9771 49.6375 77.833 49.589L77.7242 49.5437C77.6972 49.5347 77.674 49.5168 77.6584 49.493C77.6428 49.4691 77.6357 49.4407 77.6382 49.4124V49.3036C77.6382 49.2448 77.6835 49.2085 77.7469 49.1859L79.3278 48.4973C79.4174 48.4536 79.514 48.4259 79.6132 48.4158C79.6536 48.4185 79.6921 48.434 79.723 48.4601C79.754 48.4861 79.7758 48.5214 79.7854 48.5607L79.9213 49.0862Z" fill="#009DDC"/>
<path d="M86.7663 51.8493C86.7663 52.8187 87.1514 53.0316 87.4458 53.0316C87.669 53.0438 87.8913 52.9953 88.089 52.8912C88.1253 52.8686 88.1615 52.8685 88.1978 52.9365L88.2838 53.1177C88.3246 53.1766 88.2838 53.2355 88.234 53.2717C87.7209 53.6031 87.1185 53.7691 86.5081 53.7474C86.1819 53.7779 85.8568 53.6792 85.6027 53.4725C85.3485 53.2658 85.1857 52.9676 85.1491 52.6421C85.1491 52.2253 85.1718 51.3284 85.1718 50.8754V49.3126H84.4923C84.3836 49.3126 84.293 49.2627 84.293 49.145C84.293 49.0272 84.37 48.9456 84.5648 48.8505C85.2642 48.4128 85.9038 47.8859 86.4673 47.2832C86.4963 47.2482 86.5321 47.2197 86.5727 47.1994C86.6133 47.1792 86.6576 47.1676 86.7029 47.1654C86.7257 47.1646 86.7484 47.1687 86.7695 47.1775C86.7906 47.1863 86.8095 47.1995 86.825 47.2163C86.8405 47.2331 86.8521 47.253 86.8592 47.2747C86.8663 47.2964 86.8686 47.3194 86.866 47.342L86.8161 48.6014H88.4016C88.4786 48.6014 88.5149 48.6603 88.4877 48.7056L88.3654 49.2174C88.362 49.2447 88.3484 49.2696 88.3274 49.2872C88.3064 49.3049 88.2795 49.3139 88.2521 49.3126H86.8071C86.7844 49.7973 86.7844 50.368 86.7844 50.9116L86.7663 51.8493Z" fill="#009DDC"/>
<path d="M92.4779 49.7837C92.4779 49.8471 92.4779 49.8697 92.428 49.8924L92.2061 49.9875C92.1698 50.0102 92.1336 49.9875 92.0838 49.9513L91.3907 49.2401C91.2932 49.1336 91.1751 49.0481 91.0434 48.9889C90.9118 48.9297 90.7694 48.898 90.6251 48.8958C90.5346 48.8884 90.4436 48.8993 90.3574 48.928C90.2713 48.9566 90.1917 49.0023 90.1237 49.0623C90.0556 49.1224 90.0003 49.1956 89.9611 49.2775C89.922 49.3594 89.8998 49.4484 89.8958 49.5391C89.923 49.9513 90.0679 50.0691 90.983 50.3091C91.463 50.3706 91.9099 50.5868 92.2559 50.9252C92.395 51.0508 92.503 51.2071 92.5714 51.3816C92.6398 51.5561 92.6667 51.7442 92.65 51.9309C92.65 52.9863 91.7893 53.7428 90.4394 53.7428C89.9369 53.7473 89.4409 53.6291 88.9943 53.3986C88.9725 53.3791 88.9549 53.3554 88.9424 53.3289C88.93 53.3025 88.923 53.2738 88.9219 53.2445L88.7588 52.103C88.7588 52.0441 88.7996 52.0215 88.8449 52.0079L89.0714 51.949C89.1076 51.949 89.1302 51.949 89.1574 51.9988L89.6512 52.6964C89.761 52.883 89.9181 53.0373 90.1066 53.1439C90.295 53.2505 90.5083 53.3055 90.7248 53.3034C90.8219 53.3101 90.9193 53.2959 91.0105 53.2619C91.1016 53.2279 91.1845 53.1748 91.2536 53.1062C91.3226 53.0376 91.3762 52.955 91.4108 52.8641C91.4453 52.7731 91.4601 52.6758 91.4541 52.5786C91.4541 52.103 91.0962 51.949 90.2944 51.7134C89.4156 51.4643 88.786 51.0611 88.786 50.2095C88.7677 49.9468 88.8173 49.6839 88.9299 49.4459C89.0426 49.2079 89.2145 49.0029 89.4292 48.8505C89.8176 48.5523 90.2991 48.4015 90.7882 48.4247C91.2332 48.4099 91.6759 48.4951 92.0838 48.6738C92.2695 48.7554 92.2921 48.8188 92.3057 48.9003L92.4779 49.7837Z" fill="#009DDC"/>
<path d="M95.0566 52.7419C95.0657 52.5238 95.1222 52.3102 95.2224 52.1161C95.3225 51.9221 95.4638 51.7523 95.6365 51.6185C95.8523 51.441 96.0879 51.2889 96.3386 51.1655C95.8856 50.8711 95.6546 50.5812 95.6501 50.2595C95.7037 49.9481 95.8642 49.6651 96.104 49.4593C96.3438 49.2534 96.6478 49.1375 96.9637 49.1316C97.7383 49.1316 98.1642 49.5846 98.1506 50.0376C98.1506 50.409 97.6976 50.7714 97.3216 50.9118C97.88 51.1866 98.3507 51.6117 98.6806 52.1395C98.9175 51.8705 99.0605 51.5319 99.0883 51.1746C99.089 51.1468 99.0839 51.1193 99.0733 51.0936C99.0627 51.068 99.0469 51.0448 99.0269 51.0256C99.0068 51.0064 98.983 50.9916 98.9569 50.9822C98.9308 50.9727 98.903 50.9688 98.8754 50.9707H98.7848C98.744 50.9707 98.7395 50.9481 98.7395 50.9209V50.7624C98.7395 50.7624 98.7395 50.7307 98.7848 50.7307C98.8301 50.7307 99.2378 50.7307 99.5775 50.7307C99.8357 50.7307 100.248 50.7307 100.289 50.7307C100.329 50.7307 100.339 50.7307 100.339 50.785V50.9209C100.339 50.9481 100.339 50.9707 100.289 50.9707H100.18C99.9716 50.9707 99.8584 50.9979 99.7587 51.1429C99.5006 51.5758 99.213 51.9906 98.898 52.3841C98.9886 52.452 99.2604 52.7963 99.4688 52.9866C99.6666 53.2065 99.9399 53.3439 100.234 53.3716C100.382 53.3608 100.525 53.3139 100.651 53.2349C100.777 53.1559 100.881 53.0473 100.955 52.9186C100.955 52.8914 100.995 52.8869 101.009 52.9186L101.145 53.0092C101.145 53.0092 101.145 53.0364 101.145 53.0726C100.995 53.3251 100.782 53.5346 100.527 53.6806C100.273 53.8267 99.9844 53.9043 99.6907 53.9061C98.9116 53.9061 98.6081 53.512 98.2412 53.1179C98.052 53.3555 97.8135 53.549 97.542 53.6851C97.2706 53.8212 96.9728 53.8966 96.6693 53.9061C95.6772 53.888 95.0566 53.2357 95.0566 52.7419ZM98.069 52.8461C97.6817 52.2415 97.1707 51.7259 96.5696 51.3331C96.3929 51.4707 96.2505 51.6475 96.1538 51.8496C96.0572 52.0516 96.0087 52.2734 96.0125 52.4973C96.0318 52.7285 96.1342 52.9449 96.3008 53.1065C96.4673 53.268 96.6867 53.3638 96.9184 53.3761C97.1376 53.379 97.3546 53.3329 97.5537 53.2412C97.7527 53.1495 97.9288 53.0145 98.069 52.8461ZM96.4836 50.0693C96.4836 50.3547 96.8007 50.6129 97.0634 50.7307C97.2083 50.6401 97.385 50.477 97.385 50.0013C97.385 49.7114 97.2401 49.3807 96.9637 49.3807C96.5923 49.3807 96.4836 49.725 96.4836 50.0693Z" fill="#003D79"/>
<path d="M103.351 51.1656C103.401 51.1656 103.437 51.1656 103.437 51.2607C103.494 51.746 103.663 52.2113 103.931 52.6197C104.104 52.8727 104.337 53.0788 104.609 53.2195C104.881 53.3603 105.183 53.4312 105.489 53.426C106.083 53.426 107.034 53.0455 107.034 52.1078C107.034 51.1701 106.835 50.8394 105.222 50.2596C104.567 50.0146 103.955 49.6659 103.41 49.2268C103.194 49.0067 103.027 48.743 102.92 48.4531C102.814 48.1632 102.771 47.854 102.794 47.5462C102.77 47.2002 102.842 46.8544 103.002 46.5467C103.162 46.239 103.403 45.9813 103.7 45.8021C104.208 45.409 104.839 45.2084 105.48 45.2359C106.038 45.2146 106.595 45.2944 107.125 45.4715C107.171 45.4947 107.224 45.5016 107.275 45.4909C107.326 45.4802 107.372 45.4526 107.406 45.4126L107.569 45.2585C107.593 45.2341 107.622 45.215 107.654 45.2025C107.686 45.19 107.72 45.1844 107.754 45.1861C107.841 45.1861 107.863 45.3174 107.877 45.3899L108.076 47.4148C108.076 47.4646 108.049 47.4737 108.013 47.4873L107.741 47.5688C107.725 47.5751 107.708 47.578 107.691 47.5772C107.674 47.5765 107.658 47.5721 107.643 47.5643C107.628 47.5566 107.615 47.5457 107.604 47.5324C107.594 47.5191 107.586 47.5037 107.582 47.4873C107.414 47.0286 107.153 46.6093 106.817 46.2551C106.661 46.0852 106.469 45.9524 106.255 45.8661C106.041 45.7799 105.81 45.7426 105.58 45.7568C105.267 45.7433 104.961 45.8459 104.719 46.0449C104.477 46.244 104.318 46.5254 104.271 46.835C104.242 47.0294 104.256 47.2276 104.312 47.4161C104.367 47.6046 104.463 47.7788 104.593 47.9267C105.075 48.2973 105.631 48.56 106.223 48.6968C106.814 48.8716 107.355 49.1818 107.804 49.6027C108.048 49.8231 108.237 50.0979 108.355 50.4049C108.473 50.7118 108.517 51.0423 108.484 51.3694C108.489 51.7233 108.422 52.0745 108.286 52.4012C108.15 52.728 107.948 53.0233 107.693 53.2688C107.439 53.5143 107.136 53.7049 106.804 53.8285C106.473 53.9522 106.119 54.0064 105.766 53.9877C104.994 54.0512 104.221 53.8723 103.555 53.4758C103.474 53.4078 103.375 53.3639 103.27 53.349C103.197 53.349 103.148 53.4305 103.075 53.5483C103.003 53.6661 102.939 53.6887 102.853 53.6887C102.767 53.6887 102.667 53.6298 102.681 53.503L102.876 51.238C102.876 51.1565 102.926 51.1565 102.975 51.1565L103.351 51.1656Z" fill="#003D79"/>
<path d="M108.991 56.3251C108.983 56.1555 109.043 55.9897 109.156 55.8635C109.27 55.7372 109.428 55.6606 109.598 55.6501C109.779 55.6466 109.959 55.6903 110.119 55.7769C110.173 55.8207 110.239 55.8486 110.309 55.8574C110.378 55.8662 110.449 55.8556 110.513 55.8268C110.87 55.26 111.173 54.6609 111.419 54.0374C111.319 53.6207 109.774 49.9243 109.688 49.734C109.566 49.435 109.43 49.2221 109.258 49.2221H109.059C108.973 49.2221 108.959 49.1859 108.959 49.118V48.8552C108.959 48.8099 108.959 48.7737 109.059 48.7737C109.158 48.7737 109.466 48.8099 110.54 48.8099C111.292 48.8099 111.677 48.7737 111.813 48.7737C111.949 48.7737 111.926 48.8099 111.926 48.8779V49.127C111.926 49.1859 111.926 49.2221 111.849 49.2221H111.677C111.643 49.2193 111.608 49.2249 111.576 49.2384C111.544 49.2519 111.516 49.2729 111.494 49.2997C111.473 49.3264 111.458 49.3581 111.451 49.3919C111.444 49.4258 111.445 49.4608 111.455 49.4939C111.491 49.6978 112.184 51.9854 112.27 52.2481H112.334C112.642 51.5686 113.308 49.9243 113.38 49.6978C113.48 49.3762 113.321 49.2221 113.072 49.2221H112.864C112.791 49.2221 112.782 49.1859 112.782 49.127V48.8688C112.782 48.8099 112.782 48.7737 112.855 48.7737C113.013 48.7737 113.276 48.8099 113.965 48.8099C114.485 48.8099 114.771 48.7737 114.907 48.7737C115.043 48.7737 114.979 48.819 114.979 48.8915V49.118C114.979 49.1859 114.979 49.2221 114.916 49.2221H114.78C114.691 49.223 114.603 49.2452 114.524 49.287C114.445 49.3288 114.378 49.3889 114.327 49.4622C114.105 49.7431 113.24 51.5097 112.302 53.4531C111.672 54.7486 111.142 55.8494 110.907 56.2299C110.809 56.4579 110.648 56.6529 110.442 56.7918C110.236 56.9308 109.995 57.0077 109.747 57.0136C109.651 57.0224 109.555 57.0112 109.464 56.9806C109.372 56.95 109.288 56.9008 109.217 56.836C109.146 56.7712 109.089 56.6923 109.05 56.6044C109.011 56.5164 108.991 56.4213 108.991 56.3251Z" fill="#003D79"/>
<path d="M118.902 49.9922C118.902 50.051 118.902 50.0782 118.852 50.1009L118.63 50.196C118.594 50.2187 118.553 50.196 118.503 50.1598L117.815 49.4712C117.716 49.3656 117.598 49.2806 117.467 49.2215C117.335 49.1624 117.193 49.1302 117.049 49.1269C116.959 49.1195 116.868 49.1303 116.782 49.1587C116.696 49.187 116.617 49.2323 116.549 49.2919C116.481 49.3514 116.426 49.4241 116.386 49.5055C116.347 49.5869 116.324 49.6753 116.32 49.7657C116.342 50.1824 116.492 50.3002 117.407 50.5357C117.885 50.5991 118.33 50.8151 118.675 51.1518C118.815 51.2781 118.924 51.435 118.993 51.6102C119.062 51.7855 119.09 51.9743 119.074 52.162C119.074 53.2175 118.209 53.974 116.863 53.974C116.36 53.982 115.863 53.8636 115.418 53.6297C115.368 53.598 115.355 53.5481 115.341 53.4757L115.183 52.3387C115.183 52.2798 115.219 52.2571 115.269 52.2435L115.491 52.1846C115.527 52.1846 115.554 52.1846 115.577 52.2299L116.07 52.9321C116.18 53.1187 116.337 53.273 116.526 53.3796C116.714 53.4861 116.928 53.5412 117.144 53.5391C117.241 53.545 117.338 53.5303 117.429 53.496C117.52 53.4617 117.602 53.4086 117.671 53.3402C117.74 53.2718 117.794 53.1895 117.829 53.0989C117.863 53.0082 117.879 52.9113 117.873 52.8143C117.873 52.3387 117.516 52.1846 116.714 51.9491C115.835 51.6999 115.205 51.2968 115.205 50.4406C115.186 50.1778 115.235 49.9144 115.347 49.6762C115.46 49.4379 115.633 49.2331 115.849 49.0816C116.237 48.7838 116.718 48.633 117.207 48.6558C117.653 48.6387 118.096 48.7239 118.503 48.905C118.689 48.9865 118.716 49.0454 118.725 49.1315L118.902 49.9922Z" fill="#003D79"/>
<path d="M121.922 52.0579C121.922 53.0273 122.303 53.2402 122.602 53.2402C122.825 53.2502 123.046 53.2018 123.245 53.0997C123.281 53.0997 123.318 53.0998 123.354 53.145L123.44 53.3262C123.447 53.3396 123.451 53.3542 123.452 53.3692C123.454 53.3843 123.452 53.3994 123.447 53.4137C123.443 53.4281 123.435 53.4414 123.425 53.4528C123.415 53.4642 123.403 53.4735 123.39 53.4803C122.874 53.8024 122.272 53.9603 121.664 53.9333C120.822 53.9333 120.305 53.3761 120.305 52.8325C120.305 52.4157 120.305 51.5143 120.305 51.0658V49.503H119.657C119.544 49.503 119.458 49.4532 119.458 49.3354C119.458 49.2176 119.535 49.1315 119.73 49.0409C120.429 48.6032 121.069 48.0763 121.632 47.4736C121.661 47.438 121.696 47.409 121.737 47.3887C121.778 47.3683 121.822 47.3571 121.868 47.3558C121.891 47.355 121.913 47.3591 121.935 47.3679C121.956 47.3767 121.975 47.3899 121.99 47.4067C122.005 47.4235 122.017 47.4434 122.024 47.4651C122.031 47.4868 122.034 47.5098 122.031 47.5325L121.981 48.7918H123.549C123.621 48.7918 123.662 48.8507 123.635 48.896L123.512 49.4079C123.509 49.4351 123.495 49.46 123.474 49.4777C123.453 49.4953 123.426 49.5044 123.399 49.503H121.954C121.931 49.9877 121.931 50.5539 121.931 51.1021L121.922 52.0579Z" fill="#003D79"/>
<path d="M125.412 50.8305V51.1521C125.412 52.3842 126.141 52.9867 127.042 52.9867C127.305 53.0001 127.568 52.9475 127.805 52.8335C128.042 52.7196 128.247 52.548 128.401 52.3344C128.405 52.3224 128.412 52.3115 128.421 52.3027C128.43 52.2939 128.441 52.2874 128.453 52.2838C128.465 52.2802 128.478 52.2797 128.49 52.2822C128.502 52.2847 128.514 52.2902 128.524 52.2982L128.737 52.4069C128.787 52.4069 128.823 52.4884 128.709 52.6923C128.482 53.0708 128.162 53.3848 127.779 53.6044C127.396 53.8241 126.963 53.942 126.522 53.9471C125.733 53.9471 125.076 53.8202 124.669 53.3899C124.383 53.1361 124.157 52.821 124.01 52.468C123.862 52.1151 123.797 51.7334 123.817 51.3514C123.799 50.7235 123.995 50.1082 124.374 49.6074C124.626 49.283 124.953 49.0251 125.328 48.8562C125.702 48.6872 126.112 48.6123 126.522 48.638C126.795 48.6238 127.069 48.6657 127.326 48.7613C127.584 48.8568 127.818 49.004 128.017 49.1936C128.215 49.3833 128.372 49.6114 128.479 49.8641C128.585 50.1168 128.639 50.3886 128.637 50.6629C128.637 50.8169 128.524 50.8305 128.252 50.8305H125.412ZM126.608 50.3775C126.879 50.3775 127.006 50.3141 127.006 50.1374C127.006 49.6165 126.784 49.1091 126.399 49.1091C125.819 49.1091 125.493 49.5621 125.425 50.3775H126.608Z" fill="#003D79"/>
<path d="M130.82 48.7239C130.909 48.6794 131.006 48.6517 131.105 48.6423C131.148 48.641 131.19 48.6563 131.222 48.685C131.254 48.7136 131.274 48.7535 131.277 48.7964L131.377 49.4713H131.436C131.644 49.2072 131.911 48.9949 132.215 48.851C132.519 48.7072 132.852 48.6358 133.189 48.6423C133.491 48.6266 133.791 48.6959 134.055 48.8425C134.319 48.989 134.537 49.2069 134.684 49.4713H134.747C134.952 49.2312 135.205 49.0367 135.49 48.9001C135.775 48.7636 136.085 48.6882 136.4 48.6786C136.622 48.6533 136.847 48.6812 137.055 48.76C137.264 48.8387 137.451 48.9661 137.601 49.1316C137.959 49.4758 138.131 49.5846 138.131 50.7578V51.6094C138.131 52.0126 138.095 52.6649 138.081 52.9141C138.081 53.2447 138.24 53.367 138.439 53.367H138.683C138.792 53.367 138.815 53.367 138.815 53.4758V53.6977C138.815 53.7838 138.792 53.82 138.729 53.82C138.665 53.82 138.298 53.7838 137.397 53.7838C136.654 53.7838 136.21 53.82 136.124 53.82C136.038 53.82 136.024 53.7838 136.024 53.6751V53.4758C136.024 53.3897 136.061 53.367 136.101 53.367H136.21C136.272 53.3673 136.333 53.3442 136.379 53.3023C136.425 53.2603 136.454 53.2026 136.459 53.1406C136.482 52.8688 136.518 52.4429 136.518 52.0035V50.8665C136.518 50.1327 136.482 49.8835 136.323 49.7159C136.254 49.6212 136.163 49.5454 136.056 49.4955C135.95 49.4456 135.833 49.4233 135.716 49.4305C135.43 49.4604 135.165 49.5961 134.973 49.8111C134.83 50.0324 134.764 50.2956 134.788 50.5585V52.905C134.788 53.2493 134.865 53.358 135.001 53.358H135.223C135.331 53.358 135.359 53.358 135.359 53.4667V53.6796C135.359 53.7747 135.331 53.811 135.272 53.811C135.214 53.811 134.865 53.7747 134.108 53.7747C133.202 53.7747 132.776 53.811 132.704 53.811C132.632 53.811 132.613 53.7747 132.613 53.6887V53.4758C132.613 53.3806 132.613 53.358 132.74 53.358H132.912C133.085 53.358 133.207 53.204 133.207 52.5154V50.7623C133.207 49.9424 133.085 49.6706 132.935 49.5393C132.765 49.4241 132.559 49.3742 132.355 49.3988C132.222 49.4085 132.093 49.4462 131.976 49.5095C131.859 49.5727 131.757 49.6601 131.676 49.7658C131.508 50.0561 131.44 50.3933 131.481 50.7261V52.6423C131.481 53.2493 131.603 53.367 131.739 53.367H131.848C131.961 53.367 131.975 53.367 131.975 53.4758V53.6887C131.975 53.7702 131.975 53.82 131.875 53.82C131.775 53.82 131.422 53.7838 130.552 53.7838C129.683 53.7838 129.329 53.82 129.23 53.82C129.13 53.82 129.13 53.7929 129.13 53.7113V53.4758C129.13 53.3806 129.13 53.367 129.279 53.367H129.624C129.75 53.367 129.85 53.2357 129.859 53.0726C129.868 52.9095 129.859 52.5743 129.859 52.2663V50.7714C129.859 50.2505 129.773 50.0602 129.465 49.8654L129.216 49.7205C129.157 49.6888 129.13 49.6616 129.13 49.6253V49.4849C129.132 49.4617 129.141 49.4395 129.154 49.4205C129.168 49.4014 129.186 49.3862 129.207 49.3762L130.82 48.7239Z" fill="#003D79"/>
<path d="M143.151 49.9922C143.151 50.051 143.151 50.0782 143.101 50.1009L142.879 50.196C142.843 50.2187 142.806 50.196 142.757 50.1598L142.064 49.4712C141.966 49.3647 141.848 49.2793 141.716 49.2201C141.585 49.1609 141.442 49.1292 141.298 49.1269C141.208 49.1195 141.117 49.1303 141.031 49.1587C140.945 49.187 140.866 49.2323 140.798 49.2919C140.73 49.3514 140.675 49.4241 140.635 49.5055C140.596 49.5869 140.573 49.6753 140.569 49.7657C140.569 50.1824 140.741 50.3002 141.656 50.5357C142.135 50.6 142.581 50.8159 142.929 51.1518C143.068 51.2784 143.176 51.4354 143.244 51.6107C143.313 51.7859 143.34 51.9746 143.323 52.162C143.323 53.2175 142.458 53.974 141.112 53.974C140.609 53.9814 140.113 53.8631 139.667 53.6297C139.644 53.6116 139.625 53.5883 139.612 53.5615C139.6 53.5347 139.594 53.5053 139.595 53.4757L139.432 52.3387C139.432 52.2798 139.468 52.2571 139.518 52.2435L139.74 52.1846C139.776 52.1846 139.803 52.1846 139.83 52.2299L140.324 52.9321C140.434 53.119 140.591 53.2736 140.779 53.3802C140.968 53.4868 141.181 53.5416 141.398 53.5391C141.495 53.545 141.592 53.5303 141.682 53.496C141.773 53.4617 141.856 53.4086 141.925 53.3402C141.994 53.2718 142.047 53.1895 142.082 53.0989C142.117 53.0082 142.132 52.9113 142.127 52.8143C142.127 52.3387 141.769 52.1846 140.963 51.9491C140.156 51.7135 139.459 51.2968 139.459 50.4406C139.44 50.1783 139.488 49.9155 139.6 49.6775C139.712 49.4394 139.883 49.2342 140.098 49.0816C140.486 48.7838 140.967 48.633 141.457 48.6558C141.903 48.6383 142.348 48.7236 142.757 48.905C142.942 48.9865 142.965 49.0454 142.979 49.1315L143.151 49.9922Z" fill="#003D79"/>
<path d="M0 63.5142V63.1971C0.105961 63.1689 0.213313 63.1462 0.321624 63.1291C0.478225 63.1103 0.631004 63.0675 0.774616 63.0023C0.85712 62.9274 0.923412 62.8365 0.969403 62.735L1.94334 60.2889L3.08035 57.4124H3.60582L3.65112 57.4939L4.49368 59.4372C4.68394 59.8404 4.85608 60.2345 5.00556 60.615C5.15505 60.9955 5.28642 61.3081 5.39514 61.5482C5.45855 61.6931 5.54915 61.9106 5.65787 62.2005C5.71676 62.359 5.80736 62.5538 5.92514 62.7939C5.95821 62.8781 6.00745 62.9551 6.07009 63.0204C6.15379 63.0761 6.25063 63.1089 6.35095 63.1155C6.49509 63.133 6.63657 63.168 6.77223 63.2197C6.78395 63.2947 6.79151 63.3704 6.79488 63.4462C6.79662 63.4809 6.79662 63.5157 6.79488 63.5504C6.55933 63.5504 6.29659 63.5504 6.01121 63.5142C5.72582 63.4779 5.46761 63.4824 5.24112 63.4824H4.693L3.87308 63.5277H3.63753C3.63753 63.419 3.63753 63.3148 3.63753 63.2152L4.17206 63.1065C4.26993 63.0891 4.36462 63.057 4.45291 63.0113C4.46753 62.9983 4.47915 62.9822 4.48697 62.9642C4.49479 62.9462 4.49863 62.9268 4.49821 62.9072C4.50416 62.8651 4.50416 62.8224 4.49821 62.7803L4.30796 62.3273L3.92744 61.4213H2.07923C2.00675 61.5663 1.86633 61.9287 1.65342 62.5085C1.60829 62.6141 1.5778 62.7254 1.56282 62.8392C1.55939 62.8712 1.56377 62.9036 1.57561 62.9336C1.58744 62.9636 1.60637 62.9903 1.63077 63.0113C1.75864 63.0876 1.90334 63.1312 2.05205 63.1382L2.39633 63.188C2.39633 63.2967 2.39633 63.3737 2.39633 63.419C2.39838 63.4552 2.39838 63.4915 2.39633 63.5277C2.19701 63.5277 1.72137 63.5006 0.969403 63.4462L0.770086 63.4779C0.547193 63.5168 0.321382 63.5365 0.0951279 63.5368L0 63.5142ZM2.26496 60.9095H3.59223H3.71453C3.61941 60.6377 3.49257 60.316 3.33855 59.9491C3.18454 59.5822 3.0577 59.3059 2.96257 59.1156L2.26496 60.9095Z" fill="#939598"/>
<path d="M8.81543 63.147L9.1144 63.0927C9.32389 63.0746 9.52593 63.0063 9.70329 62.8933C9.77553 62.8089 9.81422 62.7009 9.81201 62.5898C9.81201 62.5536 9.81201 62.0825 9.84825 61.181V60.0576V58.4812V58.2955C9.85076 58.2615 9.846 58.2273 9.83429 58.1953C9.82257 58.1633 9.80417 58.1341 9.7803 58.1097C9.7803 58.1097 9.68064 58.078 9.58099 58.078C9.48377 58.0793 9.38682 58.0884 9.29107 58.1052C9.1636 58.1092 9.0365 58.1213 8.91056 58.1414H8.81996V57.7338C9.08794 57.6596 9.36026 57.6021 9.63534 57.5616C10.3497 57.4623 11.0704 57.4168 11.7916 57.4257C12.315 57.4096 12.8388 57.4476 13.3544 57.539C13.7903 57.6337 14.202 57.8172 14.5639 58.078C14.9611 58.366 15.2853 58.743 15.5107 59.1788C15.7229 59.6001 15.8316 60.066 15.8277 60.5378C15.8443 61.1023 15.6963 61.6594 15.4019 62.1414C15.1016 62.6028 14.68 62.9727 14.1834 63.2104C13.7092 63.4258 13.1906 63.5252 12.6704 63.5003L11.6829 63.4596H11.393H9.95244L9.46321 63.4913H9.05551H8.82449C8.81996 63.455 8.81543 63.3282 8.81543 63.147ZM11.1529 57.9965C11.1495 58.0629 11.1495 58.1294 11.1529 58.1958V58.984V59.668C11.1529 59.89 11.1529 60.0848 11.1529 60.2524V60.7054V61.4392V61.8922C11.1349 62.0447 11.1472 62.1993 11.1892 62.347C11.2312 62.4947 11.302 62.6327 11.3975 62.7529C11.6721 62.9817 12.0238 63.0967 12.3805 63.0745C12.6177 63.0863 12.8552 63.0572 13.0826 62.9885C13.3625 62.8953 13.618 62.7405 13.8301 62.5355C14.0369 62.3 14.1817 62.0166 14.2513 61.711C14.3496 61.3524 14.3984 60.9821 14.3963 60.6102C14.4164 60.0841 14.3108 59.5608 14.0883 59.0837C13.9006 58.7038 13.6042 58.3884 13.2366 58.1777C12.8559 57.9765 12.4305 57.8752 12 57.8832C11.7132 57.8719 11.4266 57.9102 11.1529 57.9965Z" fill="#939598"/>
<path d="M16.1816 63.5142V63.2107L16.7252 63.1427C16.7898 63.1297 16.8486 63.0964 16.8928 63.0476C16.933 62.9598 16.9487 62.8627 16.9381 62.7667V62.7169C16.9381 62.6807 16.9381 62.6127 16.9381 62.513C16.9381 62.4134 16.9381 62.3318 16.9381 62.2594C16.9381 62.1869 16.9381 62.0872 16.9381 61.9196V61.6886V61.4712V60.7147C16.9379 60.6159 16.9288 60.5174 16.911 60.4202C16.8576 60.3634 16.7905 60.3212 16.7162 60.2979C16.5566 60.2543 16.3923 60.23 16.2269 60.2254V59.9672C16.5267 59.9556 16.8217 59.888 17.0967 59.7679C17.3044 59.6708 17.4931 59.5373 17.6539 59.3738H17.9755C17.9755 59.7543 17.9755 60.2526 17.9755 60.8642L17.9438 62.7531C17.9363 62.8708 17.9363 62.9888 17.9438 63.1065C18.1025 63.1521 18.2646 63.1854 18.4285 63.2061C18.4991 63.2152 18.5688 63.2303 18.6369 63.2514V63.5096H18.4421H18.2246C17.894 63.5096 17.4591 63.4824 16.911 63.4824C16.7524 63.4824 16.6029 63.4824 16.458 63.4824C16.313 63.4824 16.236 63.5142 16.1816 63.5142ZM16.8566 57.9877C16.8539 57.9117 16.8675 57.836 16.8964 57.7657C16.9253 57.6954 16.9689 57.6321 17.0242 57.58C17.0847 57.5237 17.1561 57.4805 17.2341 57.4532C17.3121 57.426 17.3948 57.4151 17.4772 57.4214C17.6439 57.4186 17.8055 57.4784 17.9302 57.589C17.9878 57.6347 18.0347 57.6924 18.0675 57.7582C18.1004 57.8239 18.1185 57.8961 18.1204 57.9695C18.1186 58.0796 18.0923 58.1879 18.0434 58.2866C17.9939 58.3929 17.9112 58.4803 17.8079 58.5358C17.7082 58.5967 17.594 58.6296 17.4772 58.6309C17.3113 58.6228 17.1547 58.5518 17.0394 58.4323C16.9241 58.3127 16.8587 58.1537 16.8566 57.9877Z" fill="#939598"/>
<path d="M18.3411 59.7585H18.4543L19.4554 59.7812H19.7544H20.3886H20.5019C20.5174 59.8234 20.5265 59.8677 20.529 59.9126C20.5337 59.9683 20.5337 60.0244 20.529 60.0802L20.3161 60.1073C20.2141 60.1149 20.1143 60.141 20.0217 60.1844C19.9945 60.1844 19.9764 60.2206 19.9764 60.2432C19.9824 60.3122 20.0041 60.3788 20.0398 60.438C20.0927 60.5341 20.1381 60.634 20.1757 60.737C20.222 60.8517 20.2749 60.9637 20.3342 61.0722C20.5743 61.5524 20.7465 61.9238 20.8507 62.1911C20.8921 62.3093 20.942 62.4244 21.0001 62.5354C21.2221 62.0416 21.4531 61.4074 21.7249 60.6373C21.7839 60.4797 21.8235 60.3154 21.8427 60.1481C21.6672 60.1221 21.4901 60.1084 21.3127 60.1073H21.2538H21.1768C21.1768 60.053 21.1768 60.0032 21.1768 59.9533C21.1728 59.896 21.1871 59.8389 21.2176 59.7903H21.3852H22.0375C22.1825 59.7903 22.3319 59.7903 22.4905 59.7903H22.8755H23.0114C23.0114 59.8446 23.0114 59.8854 23.0114 59.9216C23.0114 59.9579 23.0114 59.9986 23.0114 60.0485C22.778 60.0929 22.5501 60.1628 22.3319 60.2568C22.3161 60.2844 22.3025 60.3132 22.2912 60.3429V60.3837C22.1643 60.7551 21.9605 61.2489 21.6796 61.8559L21.1587 63.0654C21.0953 63.2194 21.0454 63.3281 21.0137 63.387C20.982 63.4459 20.9095 63.5818 20.8733 63.6588H20.452C20.3056 63.4155 20.1754 63.1628 20.0625 62.9023L19.4056 61.4935C19.2425 61.122 19.0613 60.7279 18.8575 60.3112C18.842 60.276 18.8206 60.2439 18.7941 60.2161C18.6359 60.1866 18.4831 60.1332 18.3411 60.0575C18.3385 60.0168 18.3385 59.9759 18.3411 59.9352C18.3277 59.8771 18.3277 59.8167 18.3411 59.7585Z" fill="#939598"/>
<path d="M22.8174 63.514V63.2105L23.3655 63.1426C23.4284 63.1284 23.4853 63.0952 23.5286 63.0475C23.5688 62.9596 23.5844 62.8626 23.5739 62.7666V62.7168C23.5739 62.6805 23.5739 62.6126 23.5739 62.5129C23.5739 62.4133 23.5739 62.3317 23.5739 62.2592C23.5739 62.1868 23.5739 62.0871 23.5739 61.9195V61.6885V61.471V60.7145C23.572 60.6157 23.5614 60.5171 23.5422 60.4201C23.4888 60.3633 23.4218 60.3211 23.3474 60.2978C23.1879 60.2534 23.0236 60.2291 22.8582 60.2253V59.9671C23.1593 59.9549 23.4557 59.8873 23.7324 59.7678C23.938 59.6693 24.125 59.536 24.2851 59.3737H24.6067C24.6067 59.7542 24.6067 60.2525 24.6067 60.864L24.575 62.753C24.5675 62.8707 24.5675 62.9887 24.575 63.1063C24.7352 63.1524 24.8988 63.1857 25.0642 63.206C25.1334 63.215 25.2016 63.2301 25.2681 63.2513V63.5095H25.0778H24.8558C24.5297 63.5095 24.0903 63.4823 23.5422 63.4823C23.3882 63.4823 23.2341 63.4823 23.0892 63.4823C22.9442 63.4823 22.8717 63.514 22.8174 63.514ZM23.4878 57.9875C23.4857 57.9112 23.5 57.8354 23.5297 57.765C23.5594 57.6947 23.6038 57.6316 23.6599 57.5798C23.7198 57.5226 23.7911 57.4788 23.8693 57.4515C23.9474 57.4242 24.0305 57.4139 24.1129 57.4213C24.2793 57.4202 24.4403 57.4798 24.5659 57.5889C24.6222 57.6354 24.6679 57.6934 24.7 57.7591C24.732 57.8247 24.7496 57.8964 24.7517 57.9694C24.7498 58.0795 24.7235 58.1878 24.6746 58.2865C24.6265 58.3938 24.5435 58.4816 24.4391 58.5356C24.3428 58.5913 24.2335 58.6206 24.1223 58.6206C24.011 58.6207 23.9018 58.5915 23.8054 58.5359C23.709 58.4804 23.6289 58.4005 23.5732 58.3042C23.5174 58.208 23.488 58.0988 23.4878 57.9875Z" fill="#939598"/>
<path d="M25.626 62.2321C25.6961 62.2171 25.7673 62.208 25.8389 62.2049H25.9385L25.9838 62.2548C26.0908 62.4409 26.2103 62.6195 26.3417 62.7893C26.4406 62.9051 26.5531 63.0086 26.6769 63.0973C26.7851 63.1612 26.9007 63.2114 27.0212 63.2468C27.1299 63.2872 27.245 63.3071 27.3609 63.3057C27.5509 63.3094 27.7352 63.2415 27.8773 63.1155C27.9412 63.0686 27.9938 63.0081 28.0314 62.9383C28.069 62.8686 28.0907 62.7914 28.0948 62.7123C28.0979 62.6208 28.0691 62.5311 28.0132 62.4586C27.9208 62.3665 27.8096 62.2954 27.6871 62.2502C27.4877 62.1855 27.2851 62.1311 27.0801 62.0872C26.7585 62.0102 26.5637 61.9558 26.4957 61.9331C26.3487 61.8806 26.2122 61.8024 26.0926 61.7021C25.9772 61.6044 25.883 61.484 25.816 61.3484C25.749 61.2128 25.7105 61.065 25.703 60.9139C25.6966 60.7169 25.7321 60.5208 25.8072 60.3386C25.8799 60.1888 25.9815 60.0549 26.1062 59.9445C26.231 59.8399 26.3737 59.7585 26.5274 59.7044C26.7221 59.6343 26.9276 59.5991 27.1344 59.6002C27.4029 59.5968 27.6712 59.6165 27.9362 59.6591C28.1402 59.6909 28.3386 59.7519 28.5251 59.8403C28.5432 59.9128 28.5704 60.0759 28.6067 60.3296C28.6384 60.5878 28.6565 60.7372 28.6565 60.7825C28.66 60.8051 28.66 60.828 28.6565 60.8505C28.5889 60.8717 28.5189 60.8839 28.4481 60.8867H28.3122C28.2805 60.8414 28.2443 60.778 28.1944 60.6919C28.0847 60.4697 27.9305 60.2724 27.7414 60.1121C27.5768 59.9975 27.3804 59.9373 27.1797 59.94C26.9766 59.9347 26.778 60.0004 26.618 60.1257C26.5655 60.1654 26.5229 60.2167 26.4935 60.2757C26.4642 60.3346 26.4489 60.3996 26.4489 60.4655C26.4489 60.5313 26.4642 60.5963 26.4935 60.6552C26.5229 60.7142 26.5655 60.7655 26.618 60.8052C26.7868 60.9386 26.9889 61.0232 27.2024 61.0498C27.5214 61.1085 27.8339 61.198 28.1356 61.3171C28.3772 61.4089 28.5888 61.5657 28.7471 61.7701C28.8662 61.9515 28.9278 62.1646 28.9238 62.3816C28.9275 62.5548 28.8915 62.7265 28.8184 62.8836C28.7454 63.0406 28.6373 63.1789 28.5025 63.2876C28.1475 63.5498 27.7106 63.6767 27.2703 63.6455C27.2024 63.6455 27.0167 63.6455 26.7177 63.6002C26.5648 63.5784 26.4134 63.5467 26.2647 63.505C26.1445 63.4681 26.0265 63.4243 25.9114 63.3737C25.88 63.3585 25.8533 63.335 25.8344 63.3057C25.8018 63.1795 25.7806 63.0506 25.7709 62.9207C25.6577 62.5311 25.6305 62.3091 25.626 62.2321Z" fill="#939598"/>
<path d="M29.2051 63.5137V63.2102L29.7487 63.1423C29.812 63.1293 29.8693 63.0959 29.9117 63.0472C29.9519 62.9594 29.9676 62.8623 29.957 62.7663V62.7165C29.957 62.6802 29.957 62.6123 29.957 62.5126C29.957 62.413 29.957 62.3314 29.957 62.259C29.957 62.1865 29.957 62.0868 29.957 61.9192V61.6882V61.4707V60.7143C29.9552 60.6154 29.9446 60.5168 29.9253 60.4198C29.872 60.363 29.8049 60.3208 29.7306 60.2975C29.5711 60.2531 29.4068 60.2288 29.2413 60.225V59.9668C29.5425 59.9546 29.8389 59.887 30.1156 59.7675C30.3212 59.669 30.5082 59.5357 30.6682 59.3734H30.9899C30.9899 59.7539 30.9899 60.2522 30.9899 60.8637L30.9536 62.7527C30.9461 62.8704 30.9461 62.9884 30.9536 63.1061C31.1138 63.1521 31.2774 63.1854 31.4429 63.2057C31.512 63.2147 31.5802 63.2299 31.6467 63.251V63.5092H31.4564H31.2345C30.9083 63.5092 30.4689 63.482 29.9208 63.482C29.7668 63.482 29.6128 63.482 29.4678 63.482C29.3229 63.482 29.2594 63.5137 29.2051 63.5137ZM29.8755 57.9872C29.8734 57.9109 29.8877 57.8351 29.9174 57.7647C29.9471 57.6944 29.9915 57.6313 30.0476 57.5795C30.1048 57.5252 30.1725 57.4832 30.2465 57.4559C30.3205 57.4287 30.3992 57.4168 30.478 57.421C30.6446 57.4182 30.8063 57.478 30.931 57.5886C30.9886 57.6343 31.0355 57.692 31.0683 57.7578C31.1012 57.8235 31.1193 57.8956 31.1212 57.9691C31.1194 58.0792 31.0931 58.1875 31.0442 58.2862C30.9961 58.3935 30.9131 58.4813 30.8087 58.5354C30.7107 58.5964 30.5979 58.6293 30.4825 58.6305C30.3983 58.6321 30.3147 58.6165 30.2368 58.5846C30.1589 58.5526 30.0883 58.505 30.0295 58.4448C29.9239 58.3234 29.8688 58.1661 29.8755 58.0054V57.9872Z" fill="#939598"/>
<path d="M35.7509 60.1572C36.1268 60.5112 36.3468 61 36.3624 61.5162C36.376 61.8609 36.3077 62.204 36.1631 62.5173C35.9877 62.8743 35.7081 63.1696 35.3613 63.3644C34.9975 63.5517 34.5927 63.6451 34.1836 63.6362C33.7376 63.6498 33.2966 63.5384 32.9106 63.3146C32.6015 63.1376 32.3439 62.8831 32.1632 62.5762C32.0028 62.2594 31.9249 61.9073 31.9367 61.5524C31.9375 61.3409 31.9743 61.131 32.0454 60.9318C32.1089 60.7348 32.2071 60.5507 32.3353 60.3882C32.4504 60.2381 32.5879 60.1067 32.743 59.9987C32.94 59.858 33.1589 59.7508 33.3908 59.6816C33.6478 59.6132 33.9131 59.5811 34.179 59.5864C34.4661 59.5695 34.7536 59.6114 35.0239 59.7095C35.2942 59.8077 35.5416 59.96 35.7509 60.1572ZM33.1371 61.7563C33.1643 62.1368 33.187 62.3587 33.196 62.4176C33.2324 62.6056 33.2998 62.7862 33.3953 62.9522C33.4722 63.0621 33.577 63.1497 33.6989 63.2058C33.8564 63.2839 34.0304 63.3227 34.2062 63.3191C34.4231 63.3247 34.6339 63.2469 34.7951 63.1016C34.9783 62.9181 35.1002 62.6823 35.1439 62.4267C35.1991 62.1006 35.2219 61.7698 35.2118 61.4392C35.2514 61.0208 35.1493 60.6012 34.9219 60.2478C34.831 60.1341 34.715 60.0431 34.5829 59.9817C34.4509 59.9204 34.3064 59.8906 34.1609 59.8945C33.9395 59.8839 33.722 59.9548 33.5494 60.0938C33.3751 60.2479 33.2558 60.4546 33.2096 60.6827C33.15 61.0373 33.1257 61.3969 33.1371 61.7563Z" fill="#939598"/>
<path d="M36.6648 63.2965C36.7388 63.2634 36.8163 63.2391 36.8959 63.224C37.0009 63.2138 37.1043 63.191 37.2039 63.1561C37.2468 63.1335 37.2804 63.0966 37.299 63.0519C37.3229 62.9174 37.332 62.7807 37.3262 62.6442V62.241V61.9103V61.4256V61.1357C37.3307 60.9744 37.3155 60.8132 37.2809 60.6556C37.2559 60.5971 37.2131 60.548 37.1586 60.5151C37.0172 60.433 36.8646 60.372 36.7056 60.3339V60.112L36.8189 60.0893L37.2084 59.9987C37.3806 59.9353 37.4983 59.8945 37.5482 59.8673L37.6252 59.8266C37.6656 59.7918 37.7096 59.7614 37.7565 59.736C37.8838 59.6361 37.9993 59.5221 38.1008 59.3962H38.3636V59.9172C38.3636 59.9715 38.3636 60.0123 38.3636 60.044C38.3636 60.0757 38.3636 60.1391 38.3636 60.2569C38.582 60.0694 38.828 59.9167 39.0929 59.8039C39.3499 59.6959 39.625 59.6375 39.9037 59.6318C40.1828 59.6262 40.4578 59.7 40.6965 59.8447C40.8981 59.9586 41.0572 60.1351 41.1495 60.3475C41.2388 60.7211 41.2738 61.1055 41.2536 61.4891V62.9975C41.251 63.059 41.2651 63.1201 41.2944 63.1742C41.3772 63.2125 41.4662 63.2355 41.5572 63.2421L41.7927 63.2829C41.8224 63.3271 41.8381 63.3792 41.838 63.4324C41.838 63.4641 41.838 63.5185 41.838 63.5819L40.8913 63.5139H40.6104H40.393L39.7542 63.5592H39.5912C39.5912 63.5185 39.5912 63.4868 39.5912 63.4686C39.5912 63.4505 39.5912 63.3554 39.5912 63.292L39.9309 63.2467C39.9843 63.2392 40.0373 63.2286 40.0895 63.215C40.1529 63.1923 40.1891 63.1651 40.1982 63.1425C40.2323 63.0451 40.2462 62.9419 40.2389 62.839C40.2389 62.5808 40.2389 62.386 40.2389 62.241V61.702C40.2705 61.2912 40.226 60.8781 40.1076 60.4834C40.0605 60.3779 39.9834 60.2886 39.886 60.2266C39.7885 60.1646 39.675 60.1326 39.5595 60.1346C39.366 60.1386 39.1758 60.185 39.0023 60.2705C38.7866 60.3746 38.5867 60.5088 38.4089 60.6691V60.7462V61.0406V61.3486V62.0915V62.2048C38.3845 62.4917 38.4059 62.7807 38.4723 63.0609C38.6103 63.1738 38.7762 63.2473 38.9524 63.2739C38.9555 63.3131 38.9555 63.3524 38.9524 63.3916C38.9495 63.4502 38.9388 63.508 38.9207 63.5638H38.6671C38.5609 63.5585 38.4551 63.5479 38.35 63.5321H37.8336C37.5754 63.5321 37.2039 63.5321 36.7192 63.5638C36.7127 63.5324 36.7127 63.5 36.7192 63.4686C36.6603 63.4188 36.6603 63.369 36.6648 63.2965Z" fill="#939598"/>
<path d="M48.0584 60.1573C48.2564 60.3399 48.4111 60.5643 48.5114 60.8142C48.6054 61.0366 48.6561 61.2749 48.6609 61.5163C48.6757 61.8607 48.609 62.2037 48.4661 62.5174C48.289 62.8747 48.0079 63.17 47.6598 63.3645C47.296 63.5519 46.8911 63.6453 46.482 63.6363C46.0361 63.6492 45.5954 63.5379 45.2091 63.3147C44.9 63.1378 44.6424 62.8833 44.4617 62.5763C44.303 62.2591 44.2267 61.907 44.2397 61.5526C44.239 61.3413 44.2742 61.1314 44.3439 60.932C44.4073 60.7349 44.5055 60.5508 44.6338 60.3884C44.7511 60.2404 44.8883 60.1093 45.0415 59.9988C45.2391 59.8592 45.4578 59.7521 45.6893 59.6817C45.9463 59.6133 46.2116 59.5813 46.4775 59.5866C46.7661 59.5681 47.0554 59.6092 47.3274 59.7074C47.5993 59.8056 47.8482 59.9588 48.0584 60.1573ZM45.4265 61.7564C45.4537 62.1369 45.4764 62.3589 45.49 62.4178C45.5228 62.6061 45.5887 62.787 45.6847 62.9523C45.7627 63.0613 45.8672 63.1486 45.9883 63.206C46.146 63.2835 46.3199 63.3224 46.4956 63.3192C46.7138 63.3242 46.9257 63.2465 47.089 63.1018C47.2706 62.9177 47.3908 62.6819 47.4333 62.4268C47.4885 62.1007 47.5113 61.7699 47.5013 61.4393C47.5408 61.0209 47.4387 60.6014 47.2113 60.2479C47.1224 60.1321 47.0067 60.0394 46.8742 59.9779C46.7417 59.9163 46.5962 59.8878 46.4503 59.8946C46.2294 59.8876 46.0131 59.9582 45.8388 60.0939C45.6645 60.248 45.5452 60.4548 45.499 60.6828C45.4418 61.0377 45.4176 61.3971 45.4265 61.7564Z" fill="#939598"/>
<path d="M49.041 63.5142V63.2515C49.1537 63.2089 49.2686 63.1726 49.3853 63.1427C49.4877 63.1236 49.5868 63.0901 49.6797 63.0431C49.698 63.0238 49.7122 63.001 49.7216 62.9761C49.7309 62.9512 49.7352 62.9247 49.7341 62.8981V62.7939C49.7341 62.5086 49.7341 62.3409 49.7341 62.3138C49.7341 62.2866 49.7341 62.2458 49.7341 62.196V62.042L49.716 61.2492V60.3432V60.2527C49.6571 60.2527 49.571 60.2527 49.4578 60.2527H49.1543H49.0727C49.0727 60.1666 49.0727 60.1032 49.0727 60.0533C49.0688 59.9765 49.0929 59.9008 49.1407 59.8404C49.2358 59.8404 49.4261 59.8404 49.7069 59.8087C49.7162 59.457 49.7789 59.1088 49.8926 58.7759C49.9927 58.4897 50.1464 58.2253 50.3456 57.9968L50.4725 57.8654C50.6488 57.7159 50.8456 57.5923 51.0568 57.4985C51.2603 57.4262 51.4751 57.3909 51.691 57.3943C51.8933 57.3877 52.0945 57.4264 52.2799 57.5075C52.4176 57.5633 52.5325 57.6638 52.6061 57.7929C52.6603 57.8916 52.6898 58.0019 52.6921 58.1145C52.6901 58.1789 52.675 58.2423 52.6477 58.3007C52.6205 58.3591 52.5817 58.4113 52.5336 58.4543C52.4889 58.5022 52.4349 58.5405 52.375 58.567C52.315 58.5935 52.2503 58.6075 52.1848 58.6083C52.0828 58.6069 51.9835 58.5754 51.8994 58.5177C51.8047 58.4354 51.725 58.3373 51.6638 58.2278C51.606 58.1249 51.5344 58.0304 51.4509 57.9469C51.3905 57.9076 51.3191 57.8886 51.2471 57.8926C51.1989 57.8921 51.1512 57.9015 51.1067 57.9202C51.0623 57.9389 51.0222 57.9665 50.9889 58.0013C50.9076 58.0914 50.8541 58.2031 50.8349 58.3229C50.795 58.5988 50.7798 58.8778 50.7896 59.1564V59.7997H50.8802H51.4509H51.5868C51.6321 59.8359 51.6548 59.8676 51.6548 59.8903V59.9809V60.1032C51.6574 60.1394 51.6574 60.1757 51.6548 60.2119C51.622 60.2196 51.5879 60.2196 51.5551 60.2119H51.5098H51.1474H51.007H50.9662C50.9171 60.2128 50.8683 60.2204 50.8213 60.2345V60.4565C50.8213 60.4565 50.8213 60.5154 50.8213 60.5607C50.8213 60.7373 50.8213 60.8551 50.8213 60.9231V62.495C50.8213 62.7758 50.8213 62.9479 50.9028 63.0023C51.0737 63.1192 51.2756 63.1823 51.4826 63.1835C51.5338 63.1866 51.5842 63.1973 51.6321 63.2152C51.6357 63.2635 51.6357 63.3119 51.6321 63.3602C51.6372 63.4084 51.6372 63.4569 51.6321 63.5051H51.2879L50.6673 63.5142L50.4045 63.4915C50.1554 63.4915 49.9515 63.4915 49.8247 63.4915C49.6979 63.4915 49.4895 63.5142 49.041 63.5142Z" fill="#939598"/>
<path d="M55.4598 57.5344C55.6455 57.5344 55.8041 57.5344 55.94 57.5752C56.2313 57.6139 56.5249 57.6321 56.8188 57.6295C56.9366 57.6295 57.231 57.6296 57.7248 57.5978C58.4405 57.5707 59.0837 57.5571 59.6636 57.5571H60.5378C60.8274 57.5637 61.1164 57.5879 61.4031 57.6295C61.4333 57.6632 61.4565 57.7027 61.4712 57.7454C61.486 57.7882 61.4921 57.8335 61.4891 57.8787V58.83V59.0202C61.4908 59.0489 61.4908 59.0776 61.4891 59.1063H61.1267L61.0135 58.83L60.8187 58.5038C60.7347 58.3492 60.6312 58.2061 60.5107 58.078C60.41 58.0522 60.3066 58.0385 60.2026 58.0372H59.9082C59.6092 58.0146 59.2921 58.001 58.9478 58.001C58.6036 58.001 58.2049 58.001 57.8969 58.001C57.8969 58.078 57.8969 58.3815 57.8969 58.907V60.266H58.1053C58.6806 60.266 59.0928 60.266 59.3329 60.2343C59.4882 60.2326 59.6418 60.2018 59.7859 60.1437C59.8537 60.0918 59.9068 60.0231 59.9399 59.9443C60.0082 59.7196 60.0641 59.4912 60.1075 59.2603H60.4518C60.4518 59.5366 60.4518 59.745 60.4518 59.8855C60.4518 60.2116 60.4518 60.42 60.4518 60.5106C60.4518 60.6012 60.4518 60.6782 60.4518 60.728C60.4518 60.7778 60.4518 60.9455 60.4518 61.1312C60.4518 61.3169 60.4518 61.4483 60.4518 61.5389V61.6431H60.1075C60.1075 61.5932 60.0713 61.489 60.035 61.335C60.0062 61.1474 59.9481 60.9655 59.8629 60.796C59.8155 60.7335 59.7485 60.6888 59.6726 60.6691C59.4355 60.6369 59.1959 60.6263 58.9569 60.6374C58.4677 60.6374 58.1053 60.6374 57.8607 60.6737V60.8322C57.8607 61.1991 57.8607 61.5026 57.8607 61.7382V62.7393C57.8555 62.7879 57.8653 62.837 57.8888 62.8799C57.9123 62.9228 57.9483 62.9575 57.992 62.9794C58.388 63.0728 58.7956 63.1064 59.2015 63.079C59.5829 63.0833 59.9637 63.05 60.3385 62.9794C60.5529 62.933 60.7494 62.8261 60.9048 62.6714C61.1468 62.4242 61.3323 62.1275 61.4484 61.8016C61.548 61.8016 61.6295 61.8016 61.693 61.8016H61.8515C61.8515 61.8786 61.8515 61.942 61.8515 61.9919L61.8243 62.1323L61.6477 63.0066L61.5616 63.5366H61.0678C60.8866 63.5366 60.4065 63.5366 59.6273 63.4913C59.0747 63.4913 58.4133 63.455 57.6432 63.455C57.2536 63.455 56.7825 63.455 56.2208 63.5049H56.017H55.4326V63.1832C55.496 63.1832 55.6183 63.1515 55.7995 63.1334C56.037 63.1203 56.2709 63.0698 56.4926 62.9839C56.5324 62.8768 56.5508 62.7629 56.547 62.6487C56.547 62.5943 56.547 62.5037 56.547 62.3769V62.2365V60.4879V59.967V59.2241V58.7031L56.5062 58.1278C56.5062 58.1278 56.5062 58.0825 56.5062 58.0372C56.4671 57.9987 56.4159 57.9747 56.3613 57.9693L56.2163 57.9421C56.0417 57.9061 55.8644 57.8849 55.6863 57.8787H55.4734L55.4598 57.5344Z" fill="#939598"/>
<path d="M62.2008 57.9512L62.6131 57.8017C62.7173 57.7655 62.9845 57.6387 63.4194 57.4167H63.6323C63.6805 57.4116 63.7291 57.4116 63.7773 57.4167C63.7773 57.5028 63.7773 57.5662 63.7773 57.5979V57.7881L63.8044 59.5322V60.2026C63.9179 60.0867 64.0423 59.9821 64.1759 59.89L64.4386 59.7587C64.5507 59.7057 64.6675 59.6632 64.7874 59.6318C65.1818 59.5459 65.5922 59.5694 65.9743 59.6998C66.1859 59.7804 66.3787 59.9038 66.5405 60.0622C66.7416 60.2563 66.8964 60.4931 66.9935 60.7552C67.0755 60.9753 67.114 61.2091 67.1068 61.4438C67.1044 61.6449 67.0739 61.8446 67.0161 62.0372C66.9473 62.2677 66.8434 62.4861 66.7081 62.685C66.5812 62.8583 66.4284 63.0111 66.2551 63.138C66.0587 63.2863 65.8401 63.4024 65.6073 63.4823C65.339 63.5557 65.0608 63.5863 64.7829 63.5729C64.358 63.5518 63.9459 63.4206 63.587 63.1923C63.505 63.1425 63.4203 63.0971 63.3333 63.0564C63.2699 63.1425 63.1974 63.2512 63.1204 63.3781C63.0434 63.5049 62.9891 63.5864 62.9573 63.6272H62.7173C62.7129 63.5518 62.7129 63.4762 62.7173 63.4007C62.7215 63.3283 62.7215 63.2557 62.7173 63.1833V62.839V62.7212C62.7173 62.6714 62.7173 62.5853 62.7173 62.4585V59.0746C62.7242 58.8521 62.7121 58.6293 62.681 58.4087C62.6797 58.3962 62.6758 58.3841 62.6696 58.3732C62.6633 58.3623 62.6549 58.3528 62.6448 58.3453C62.4828 58.2717 62.3164 58.2081 62.1465 58.1551L62.2008 57.9512ZM63.809 60.488V61.2128C63.7911 61.6909 63.8123 62.1696 63.8724 62.6442C63.9214 62.8172 64.0349 62.9647 64.1895 63.0564C64.3502 63.1687 64.5416 63.2288 64.7376 63.2286C64.8834 63.2283 65.0278 63.2006 65.1634 63.147C65.2813 63.1057 65.3904 63.0427 65.485 62.9613C65.5892 62.8704 65.6739 62.7595 65.7342 62.6352C65.8161 62.4822 65.8727 62.317 65.9018 62.1459C65.9255 61.9854 65.9391 61.8235 65.9426 61.6612C65.941 61.4024 65.8871 61.1466 65.784 60.9093C65.6937 60.6815 65.5355 60.487 65.331 60.3521C65.1413 60.2323 64.9212 60.1694 64.6968 60.1709C64.5237 60.1772 64.3532 60.2156 64.194 60.2841C64.0555 60.3309 63.9255 60.3998 63.809 60.488Z" fill="#939598"/>
<path d="M67.6192 61.0724C67.6673 60.8888 67.7421 60.7133 67.8412 60.5514C67.9972 60.3219 68.1919 60.1211 68.4165 59.958C68.724 59.7263 69.0961 59.5965 69.481 59.5865C69.7274 59.5809 69.9737 59.6037 70.2148 59.6545C70.3751 59.693 70.5281 59.7572 70.6678 59.8447C70.8328 59.9487 70.9849 60.0718 71.1208 60.2117C71.2343 60.3469 71.3246 60.4999 71.3881 60.6647C71.4603 60.8575 71.4986 61.0613 71.5013 61.2671H70.9668C70.8173 61.2671 70.4912 61.2671 69.9929 61.2309C69.8071 61.2309 69.6803 61.2037 69.6078 61.2037H69.0869H68.6747C68.6708 61.2399 68.6708 61.2763 68.6747 61.3124C68.6767 61.4864 68.698 61.6596 68.7381 61.8288C68.7765 61.9977 68.8407 62.1597 68.9283 62.309C69.0084 62.4447 69.1129 62.5645 69.2364 62.6624C69.3506 62.7563 69.4811 62.8284 69.6214 62.8753L69.9023 62.9659C70.0667 62.9771 70.2316 62.9771 70.396 62.9659C70.5349 62.9378 70.6713 62.8984 70.8037 62.8481C70.953 62.78 71.0955 62.6981 71.2295 62.6035C71.3428 62.685 71.4424 62.7575 71.5195 62.8209C71.2717 63.0933 70.9732 63.3149 70.6406 63.4732C70.1195 63.6799 69.5488 63.7272 69.0008 63.6091C68.7931 63.5582 68.5955 63.4725 68.4165 63.3554C68.242 63.2389 68.0888 63.0933 67.9635 62.9251C67.8453 62.7666 67.7521 62.5909 67.6871 62.4042C67.6169 62.223 67.5756 62.0319 67.5648 61.8379C67.5556 61.5815 67.5738 61.3249 67.6192 61.0724ZM70.4141 60.8776C70.4137 60.7061 70.3783 60.5365 70.31 60.3793C70.2462 60.2264 70.1371 60.0968 69.9974 60.0078C69.8625 59.9206 69.705 59.8749 69.5444 59.8765C69.4336 59.8784 69.3245 59.904 69.2245 59.9517C69.1245 59.9994 69.0358 60.0679 68.9646 60.1528C68.7822 60.3563 68.6778 60.6179 68.6701 60.8912H69.7664H70.0653H70.2647L70.4141 60.8776Z" fill="#939598"/>
<path d="M71.7679 63.2966C71.8155 63.2585 71.8713 63.2321 71.931 63.2195C72.092 63.1856 72.2454 63.1226 72.3839 63.0338C72.4292 62.7874 72.4444 62.5364 72.4293 62.2864C72.4395 61.7588 72.4213 61.2311 72.3749 60.7054C72.3676 60.6532 72.3399 60.6059 72.2979 60.5741C72.1926 60.5293 72.0834 60.4945 71.9717 60.4699C71.9447 60.466 71.9193 60.4547 71.8985 60.437C71.8776 60.4194 71.8622 60.3962 71.8539 60.3702V60.1981C72.085 60.1698 72.3065 60.0893 72.5017 59.9625C72.6673 59.8631 72.8131 59.7341 72.9321 59.582C72.9737 59.5247 73.0191 59.4702 73.068 59.4189H73.4032C73.4191 59.4766 73.4282 59.5359 73.4304 59.5956C73.4304 59.6273 73.4304 59.6726 73.4304 59.7224C73.4304 59.7723 73.4304 59.9172 73.4304 59.9897C73.4304 60.0622 73.4304 60.1483 73.4304 60.3748C73.5617 60.1573 73.6569 60.0124 73.7157 59.9218C73.7746 59.8312 73.8335 59.813 73.9739 59.6953C74.0811 59.6194 74.2096 59.5797 74.3409 59.582C74.4237 59.5788 74.5063 59.5919 74.5841 59.6207C74.6618 59.6494 74.7331 59.6933 74.7939 59.7496C74.8528 59.7951 74.9005 59.8534 74.9335 59.9202C74.9665 59.9869 74.9838 60.0602 74.9841 60.1347C74.9836 60.2776 74.9322 60.4157 74.8392 60.5242C74.7947 60.5807 74.7373 60.6258 74.672 60.6557C74.6066 60.6856 74.535 60.6996 74.4632 60.6964C74.2976 60.6932 74.1379 60.6342 74.0102 60.5288C73.9505 60.4754 73.8765 60.4407 73.7973 60.4291H73.761C73.6809 60.4636 73.6164 60.5265 73.5798 60.6058C73.4916 60.7504 73.4446 60.9165 73.4439 61.086V61.2083C73.4439 61.4348 73.4666 61.9693 73.4711 62.8073C73.4841 62.8908 73.5167 62.9699 73.5663 63.0383C73.6168 63.0811 73.6753 63.1134 73.7384 63.1335C73.8411 63.1576 73.9457 63.1728 74.051 63.1788C74.1448 63.1784 74.2375 63.1985 74.3228 63.2377C74.3394 63.254 74.3522 63.2739 74.36 63.2959C74.3679 63.3178 74.3706 63.3413 74.3681 63.3645C74.3658 63.4124 74.3566 63.4597 74.3409 63.5049H73.8879L72.9819 63.4596C72.7509 63.4596 72.5289 63.4596 72.3522 63.4868H72.2707L71.7679 63.514C71.7649 63.4748 71.7649 63.4354 71.7679 63.3962C71.7655 63.363 71.7655 63.3297 71.7679 63.2966Z" fill="#939598"/>
<path d="M75.002 63.3237C75.0876 63.2728 75.1836 63.2418 75.2828 63.2331C75.5048 63.2331 75.6361 63.1788 75.6679 63.138C75.7471 62.9879 75.7802 62.8177 75.763 62.6488V61.3442V61.0316V60.0984V59.0294V58.8436C75.7709 58.6558 75.7495 58.4678 75.6996 58.2865C75.5888 58.2199 75.4618 58.1854 75.3326 58.1868C75.2596 58.1865 75.1868 58.1789 75.1152 58.1642C75.1122 58.1068 75.1122 58.0494 75.1152 57.992C75.1135 57.9649 75.1135 57.9376 75.1152 57.9105C75.3847 57.8795 75.6494 57.8156 75.9034 57.7202C76.1239 57.6501 76.3341 57.5511 76.5285 57.4258H76.6644H76.7867C76.7867 58.4903 76.8139 59.2377 76.8139 59.6183C76.8193 59.7118 76.8193 59.8056 76.8139 59.8991V59.9263V60.0124V62.0644V62.7394V62.8481C76.8055 62.9475 76.8276 63.047 76.8773 63.1335C76.9487 63.1838 77.0347 63.2093 77.122 63.206L77.5206 63.2513C77.5254 63.304 77.5254 63.3571 77.5206 63.4098C77.5206 63.4415 77.5206 63.4823 77.5206 63.5412H77.1401C76.9272 63.5412 76.6644 63.5185 76.3428 63.5185H76.1707C75.9895 63.5185 75.7177 63.5185 75.3779 63.5638H75.0246L75.002 63.3237Z" fill="#939598"/>
<path d="M79.9033 63.5139V63.1787L80.2159 63.1017C80.3722 63.0675 80.5241 63.0158 80.6689 62.9477C80.7335 62.8252 80.7633 62.6873 80.7549 62.5491V62.0055V60.9455V60.6963C80.7821 60.0848 80.7957 59.7903 80.7957 59.7541V59.138V58.8889L80.7685 58.3589V58.1596C80.7609 58.1092 80.7503 58.0593 80.7368 58.0101C80.5303 57.9371 80.3127 57.9003 80.0936 57.9014H79.926V57.4937L81.2849 57.548H81.602C81.7923 57.548 82.0958 57.548 82.508 57.5118L82.961 57.4846C82.961 57.5435 82.961 57.5933 82.961 57.6341C82.961 57.6749 82.961 57.7519 82.961 57.838C82.8342 57.8787 82.6892 57.9195 82.508 57.9603C82.3709 57.9894 82.2361 58.0287 82.1049 58.078C82.0797 58.191 82.069 58.3067 82.0731 58.4223C82.0674 58.531 82.0674 58.6398 82.0731 58.7485C82.0731 59.2694 82.0731 59.6544 82.0731 59.9534V61.1765L82.0505 61.7926V62.7212V62.8979C82.0536 62.9339 82.0627 62.9691 82.0777 63.0021C82.2725 63.0428 82.4537 63.07 82.6122 63.0881L82.9021 63.1244C82.9078 63.2013 82.9078 63.2785 82.9021 63.3554C82.9021 63.3871 82.9021 63.4415 82.9021 63.5139H82.807H82.6303H82.5035C82.4627 63.5139 82.2453 63.4822 81.8648 63.446H81.0131C80.8455 63.446 80.5964 63.446 80.2748 63.4913L79.9033 63.5139Z" fill="#939598"/>
<path d="M83.3564 63.2966C83.404 63.2585 83.4599 63.2321 83.5195 63.2195C83.6801 63.1844 83.8334 63.1215 83.9725 63.0338C84.0152 62.7871 84.0304 62.5364 84.0178 62.2864C84.028 61.7588 84.0099 61.2311 83.9635 60.7054C83.9541 60.6539 83.9268 60.6074 83.8864 60.5741C83.7812 60.5293 83.672 60.4945 83.5603 60.4699C83.5329 60.4672 83.5069 60.4562 83.4859 60.4384C83.4649 60.4206 83.4497 60.3968 83.4425 60.3702V60.1981C83.6722 60.1699 83.8922 60.0893 84.0858 59.9625C84.26 59.8663 84.4138 59.737 84.5388 59.582C84.5775 59.5225 84.6231 59.4678 84.6747 59.4189H85.0099C85.0247 59.4767 85.0323 59.536 85.0325 59.5956C85.0325 59.6273 85.0325 59.6726 85.0325 59.7224C85.0325 59.7723 85.0325 59.9172 85.0325 59.9897C85.0325 60.0622 85.0325 60.1483 85.0325 60.3748C85.1213 60.2189 85.2181 60.0677 85.3224 59.9218C85.4028 59.8417 85.4875 59.7661 85.5761 59.6953C85.6849 59.6193 85.8149 59.5797 85.9476 59.582C86.1147 59.5764 86.2773 59.6366 86.4006 59.7496C86.4595 59.7951 86.5072 59.8534 86.5402 59.9202C86.5732 59.9869 86.5905 60.0602 86.5908 60.1347C86.5902 60.2776 86.5389 60.4157 86.4458 60.5242C86.4013 60.5807 86.344 60.6258 86.2786 60.6557C86.2133 60.6856 86.1417 60.6996 86.0699 60.6964C85.9041 60.6943 85.7441 60.6351 85.6169 60.5288C85.5561 60.4743 85.4803 60.4396 85.3994 60.4291H85.3677C85.2864 60.4634 85.2203 60.5262 85.182 60.6058C85.0942 60.7504 85.0487 60.9168 85.0506 61.086V61.2083C85.0506 61.4348 85.0506 61.9693 85.0778 62.8073C85.0891 62.8905 85.1202 62.9697 85.1684 63.0383C85.2212 63.0803 85.281 63.1125 85.3451 63.1335C85.4478 63.1576 85.5523 63.1728 85.6576 63.1788C85.75 63.1781 85.8414 63.1982 85.9249 63.2377C85.9421 63.2538 85.9555 63.2735 85.9641 63.2955C85.9728 63.3174 85.9764 63.341 85.9747 63.3645C85.9725 63.4124 85.9633 63.4597 85.9476 63.5049H85.4946L84.5886 63.4596C84.3576 63.4596 84.1356 63.4596 83.9589 63.4868H83.8729L83.3746 63.514C83.3716 63.4748 83.3716 63.4354 83.3746 63.3962C83.3661 63.3635 83.36 63.3302 83.3564 63.2966Z" fill="#939598"/>
<path d="M90.5799 60.1572C90.9558 60.5112 91.1758 61 91.1914 61.5162C91.205 61.8609 91.1367 62.204 90.9921 62.5173C90.8164 62.8756 90.535 63.1713 90.1858 63.3644C89.8236 63.5517 89.4202 63.6452 89.0125 63.6362C88.5651 63.6497 88.1228 63.5383 87.7351 63.3146C87.427 63.1363 87.1696 62.8821 86.9876 62.5762C86.831 62.2582 86.7548 61.9067 86.7657 61.5524C86.7672 61.3413 86.8023 61.1318 86.8699 60.9318C86.9348 60.7345 87.0345 60.5504 87.1643 60.3882C87.2793 60.2381 87.4168 60.1067 87.572 59.9987C87.769 59.858 87.9879 59.7508 88.2198 59.6816C88.4768 59.6132 88.7421 59.5811 89.008 59.5864C89.2951 59.5695 89.5826 59.6114 89.8529 59.7095C90.1232 59.8077 90.3706 59.96 90.5799 60.1572ZM87.948 61.7563C87.9797 62.1368 88.0023 62.3587 88.0114 62.4176C88.0457 62.6062 88.1132 62.7872 88.2107 62.9522C88.2876 63.0621 88.3923 63.1497 88.5142 63.2058C88.6703 63.2835 88.8428 63.3224 89.017 63.3191C89.2355 63.3259 89.4481 63.248 89.6105 63.1016C89.7937 62.9181 89.9155 62.6823 89.9593 62.4267C90.0145 62.1006 90.0372 61.7698 90.0272 61.4392C90.0647 61.0209 89.9628 60.602 89.7373 60.2478C89.5702 60.0582 89.3386 59.9375 89.0875 59.909C88.8364 59.8806 88.5836 59.9464 88.3783 60.0938C88.2055 60.2491 88.0866 60.4553 88.0386 60.6827C87.9777 61.0373 87.9474 61.3965 87.948 61.7563Z" fill="#939598"/>
<path d="M91.4959 63.2965C91.5699 63.2634 91.6474 63.2391 91.727 63.224C91.832 63.2138 91.9354 63.191 92.035 63.1561C92.0768 63.1321 92.1101 63.0957 92.1301 63.0519C92.154 62.9174 92.1631 62.7807 92.1573 62.6442V61.9103V61.4256V61.1357C92.1629 60.9741 92.1462 60.8126 92.1075 60.6556C92.086 60.5963 92.0443 60.5466 91.9897 60.5151C91.8483 60.433 91.6957 60.372 91.5367 60.3339V60.112L91.65 60.0893L92.0395 59.9987C92.2117 59.9353 92.3294 59.8945 92.3793 59.8673L92.4563 59.8266C92.4967 59.7918 92.5407 59.7614 92.5877 59.736C92.7149 59.6361 92.8304 59.5221 92.9319 59.3962H93.1947V59.9172C93.1947 59.9715 93.1947 60.0123 93.1947 60.044C93.1947 60.0757 93.1947 60.1391 93.1947 60.2569C93.4131 60.0694 93.6591 59.9167 93.924 59.8039C94.1809 59.6955 94.4561 59.6371 94.7348 59.6318C95.0139 59.6262 95.2889 59.7 95.5276 59.8447C95.7292 59.9586 95.8883 60.1351 95.9806 60.3475C96.0699 60.7211 96.1049 61.1055 96.0848 61.4891V62.9975C96.083 63.0584 96.0954 63.1189 96.121 63.1742C96.2057 63.2115 96.296 63.2345 96.3883 63.2421L96.6238 63.2829C96.6521 63.3275 96.6663 63.3796 96.6646 63.4324V63.5819L95.7178 63.5139H95.437H95.2195L94.5808 63.5592H94.4177C94.416 63.5291 94.416 63.4988 94.4177 63.4686C94.4177 63.4143 94.4177 63.3554 94.4177 63.292L94.7575 63.2467C94.8109 63.2392 94.8638 63.2286 94.916 63.215C94.9795 63.1923 95.0157 63.1651 95.0247 63.1425C95.0589 63.0451 95.0728 62.9419 95.0655 62.839C95.0655 62.5808 95.0655 62.386 95.0655 62.241V61.702C95.0971 61.2912 95.0526 60.8781 94.9342 60.4834C94.8871 60.3779 94.81 60.2886 94.7125 60.2266C94.6151 60.1646 94.5015 60.1326 94.386 60.1346C94.1925 60.138 94.0022 60.1844 93.8288 60.2705C93.6131 60.3746 93.4133 60.5088 93.2354 60.6691V60.7462V61.0406V61.3486V62.0915V62.2048C93.2111 62.4917 93.2325 62.7807 93.2988 63.0609C93.4369 63.1738 93.6027 63.2473 93.779 63.2739C93.782 63.3131 93.782 63.3524 93.779 63.3916C93.774 63.4503 93.7618 63.5081 93.7428 63.5638H93.4936C93.3875 63.5585 93.2816 63.5479 93.1765 63.5321H92.6601C92.4019 63.5321 92.0305 63.5321 91.5458 63.5638C91.5393 63.5324 91.5393 63.5 91.5458 63.4686C91.4914 63.4188 91.4914 63.369 91.4959 63.2965Z" fill="#939598"/>
<path d="M98.7303 57.8742L98.7031 57.5843C98.7328 57.5692 98.7651 57.56 98.7982 57.5571C99.061 57.5571 99.3283 57.5888 99.5955 57.5934H99.8084H100.212L100.837 57.5662C100.857 57.5767 100.873 57.5944 100.882 57.616L100.841 57.8335C100.784 57.8686 100.725 57.9004 100.665 57.9286C100.538 57.9965 100.47 58.0509 100.47 58.0962C100.474 58.1492 100.492 58.2004 100.52 58.2457C100.52 58.2864 100.565 58.3499 100.597 58.4359C100.651 58.5899 100.805 58.9569 101.05 59.5412L102.3 62.3362C102.463 62.0417 102.717 61.548 103.065 60.8549L102.359 59.2241C102.227 58.9206 102.114 58.667 102.019 58.4722C101.987 58.4042 101.96 58.3453 101.937 58.2864C101.909 58.2415 101.883 58.1946 101.86 58.146C101.823 58.0847 101.77 58.0346 101.706 58.0011C101.553 57.9341 101.391 57.8855 101.226 57.8561V57.5752H101.648L102.15 57.6024H102.825L103.659 57.5571H103.727V57.77C103.731 57.7955 103.731 57.8216 103.727 57.847C103.642 57.8657 103.555 57.8793 103.469 57.8878C103.406 57.8866 103.345 57.904 103.292 57.9376C103.277 57.9489 103.265 57.9632 103.256 57.9797C103.248 57.9961 103.243 58.0142 103.242 58.0328C103.248 58.1523 103.282 58.2687 103.342 58.3725C103.373 58.4314 103.41 58.522 103.46 58.6398C103.618 59.0384 103.745 59.3238 103.826 59.5095L104.166 58.8346C104.281 58.6143 104.382 58.3874 104.47 58.1551C104.473 58.1295 104.473 58.1036 104.47 58.0781V58.0464C104.439 58.0147 104.404 57.9873 104.366 57.9648C104.231 57.9166 104.093 57.8772 103.953 57.847C103.953 57.7882 103.953 57.7429 103.953 57.7111C103.948 57.6599 103.948 57.6083 103.953 57.5571L104.859 57.5798H105.421H105.761V57.6205V57.8289V57.8516C105.554 57.9059 105.354 57.9818 105.163 58.0781C105.083 58.1334 105.016 58.2062 104.968 58.291C104.809 58.5628 104.515 59.129 104.062 59.9942V60.035L104.37 60.719L104.896 61.9104C104.95 62.0282 104.986 62.1142 105.009 62.1686L105.616 60.642L106.463 58.5628L106.599 58.1732C106.601 58.1491 106.601 58.1248 106.599 58.1007V58.0192L106.332 57.9422C106.268 57.9286 106.207 57.9057 106.15 57.8742C106.15 57.7715 106.15 57.7081 106.15 57.684C106.152 57.6486 106.163 57.6143 106.182 57.5843H106.259L106.984 57.6115L107.459 57.5843H107.559C107.563 57.6341 107.563 57.684 107.559 57.7338C107.561 57.7812 107.55 57.8282 107.527 57.8697C107.501 57.8953 107.468 57.914 107.432 57.9241C107.332 57.9665 107.24 58.0263 107.16 58.1007C107.095 58.195 107.044 58.2989 107.011 58.4087C106.735 59.1335 106.445 59.8266 106.146 60.497C105.847 61.1675 105.407 62.2365 104.823 63.6952H104.343C104.314 63.5988 104.278 63.5049 104.234 63.4143C104.173 63.2905 104.119 63.1635 104.071 63.0338L103.537 61.8515C103.474 61.6967 103.403 61.5455 103.324 61.3985L103.287 61.3305C103.287 61.3305 103.111 61.6567 102.776 62.2365C102.44 62.8164 102.196 63.3101 102.042 63.6499H101.552C101.435 63.3116 101.208 62.7907 100.873 62.087L99.3192 58.5854C99.2307 58.359 99.1118 58.1456 98.9659 57.9512C98.9221 57.9178 98.8731 57.8918 98.8209 57.8742H98.7303Z" fill="#939598"/>
<path d="M110.925 60.1572C111.113 60.3307 111.264 60.5406 111.369 60.7742C111.475 61.0077 111.531 61.2601 111.536 61.5162C111.552 61.8611 111.484 62.2047 111.337 62.5173C111.162 62.8743 110.882 63.1696 110.535 63.3644C110.171 63.5517 109.767 63.6451 109.357 63.6362C108.911 63.6498 108.47 63.5384 108.084 63.3146C107.775 63.1376 107.518 62.8831 107.337 62.5762C107.177 62.2594 107.099 61.9073 107.111 61.5524C107.112 61.3413 107.147 61.1318 107.215 60.9318C107.345 60.5548 107.591 60.2284 107.917 59.9987C108.114 59.858 108.333 59.7508 108.565 59.6816C108.822 59.6132 109.087 59.5811 109.353 59.5864C109.64 59.5695 109.927 59.6114 110.198 59.7095C110.468 59.8077 110.715 59.96 110.925 60.1572ZM108.293 61.7563C108.32 62.1368 108.343 62.3587 108.352 62.4176C108.388 62.6056 108.456 62.7862 108.551 62.9522C108.628 63.0621 108.733 63.1497 108.855 63.2058C109.011 63.2835 109.183 63.3224 109.357 63.3191C109.576 63.3259 109.788 63.248 109.951 63.1016C110.134 62.9181 110.256 62.6823 110.3 62.4267C110.355 62.1006 110.378 61.7698 110.368 61.4392C110.407 61.0208 110.305 60.6012 110.078 60.2478C109.911 60.0582 109.679 59.9375 109.428 59.909C109.177 59.8806 108.924 59.9464 108.719 60.0938C108.547 60.2496 108.43 60.4558 108.383 60.6827C108.318 61.0367 108.287 61.3963 108.293 61.7563Z" fill="#939598"/>
<path d="M111.831 63.2966C111.879 63.2585 111.934 63.2321 111.994 63.2195C112.155 63.1844 112.308 63.1215 112.447 63.0338C112.487 62.7868 112.501 62.5363 112.488 62.2864C112.488 61.5072 112.488 60.9818 112.438 60.7054C112.429 60.6539 112.401 60.6074 112.361 60.5741C112.254 60.5289 112.144 60.494 112.03 60.4699C112.004 60.4663 111.979 60.4549 111.959 60.4372C111.938 60.4195 111.924 60.3962 111.917 60.3702V60.1981C112.147 60.1699 112.367 60.0893 112.56 59.9625C112.735 59.8663 112.888 59.737 113.013 59.582C113.052 59.5225 113.098 59.4678 113.149 59.4189H113.484C113.499 59.4767 113.507 59.536 113.507 59.5956C113.507 59.6273 113.507 59.6726 113.507 59.7224C113.507 59.7723 113.507 59.9172 113.507 59.9897C113.507 60.0622 113.507 60.1483 113.507 60.3748C113.596 60.2189 113.693 60.0677 113.797 59.9218C113.829 59.8901 113.91 59.813 114.051 59.6953C114.16 59.6193 114.29 59.5797 114.422 59.582C114.589 59.5764 114.752 59.6366 114.875 59.7496C114.933 59.7953 114.981 59.8538 115.013 59.9206C115.045 59.9873 115.061 60.0606 115.061 60.1347C115.062 60.2771 115.012 60.4153 114.92 60.5242C114.876 60.5807 114.819 60.6258 114.753 60.6557C114.688 60.6856 114.616 60.6996 114.544 60.6964C114.379 60.6943 114.219 60.6351 114.091 60.5288C114.031 60.4743 113.955 60.4396 113.874 60.4291H113.842C113.761 60.4634 113.695 60.5262 113.657 60.6058C113.572 60.7517 113.526 60.9172 113.525 61.086V61.2083C113.525 61.4348 113.548 61.9693 113.552 62.8073C113.564 62.8905 113.595 62.9697 113.643 63.0383C113.696 63.0803 113.756 63.1125 113.82 63.1335C113.922 63.1576 114.027 63.1728 114.132 63.1788C114.225 63.1781 114.316 63.1982 114.4 63.2377C114.417 63.2538 114.43 63.2735 114.439 63.2955C114.447 63.3174 114.451 63.341 114.449 63.3645C114.447 63.4128 114.437 63.4604 114.418 63.5049H113.965L113.059 63.4596C112.823 63.4596 112.606 63.4596 112.424 63.4868H112.343L111.845 63.514C111.84 63.4749 111.84 63.4353 111.845 63.3962C111.836 63.3636 111.832 63.3302 111.831 63.2966Z" fill="#939598"/>
<path d="M115.033 63.2606C115.087 63.235 115.145 63.2167 115.205 63.2062H115.332C115.44 63.2012 115.548 63.1861 115.653 63.1609C115.68 63.0619 115.695 62.96 115.699 62.8574L115.726 60.9005V59.0885C115.731 58.8616 115.72 58.6345 115.694 58.409C115.687 58.3581 115.675 58.308 115.658 58.2596C115.605 58.2102 115.541 58.1731 115.472 58.1508C115.346 58.1162 115.217 58.095 115.087 58.0874C115.085 58.0557 115.085 58.024 115.087 57.9923C115.087 57.9606 115.087 57.9108 115.087 57.8473C115.214 57.8066 115.563 57.7114 116.143 57.562C116.29 57.5253 116.434 57.4768 116.573 57.417H116.768V59.4691C116.768 59.4691 116.768 59.5823 116.768 59.7635C116.768 59.8269 116.768 59.9538 116.768 60.1485V60.8416V61.4985C116.926 61.4079 117.261 61.204 117.764 60.8824C117.941 60.7691 118.136 60.6287 118.349 60.4656C118.42 60.4156 118.486 60.3595 118.548 60.298L118.398 60.2482C118.245 60.2095 118.093 60.1611 117.945 60.1032C117.945 60.0625 117.945 60.0308 117.945 60.0081C117.943 59.9613 117.943 59.9144 117.945 59.8677H118.299H118.548H118.956C119.069 59.8677 119.227 59.8677 119.431 59.8677H119.807H120.038C120.052 59.9349 120.052 60.0043 120.038 60.0715L119.658 60.1893C119.493 60.2306 119.333 60.2914 119.182 60.3705C118.915 60.5109 118.466 60.7918 117.823 61.204L118.063 61.435L118.19 61.5438L118.548 61.888L119.332 62.6491L119.785 63.102C119.911 63.1797 120.044 63.2449 120.183 63.2968C120.183 63.3874 120.183 63.4373 120.183 63.4554C120.183 63.4735 120.183 63.5188 120.183 63.5686L119.871 63.546C119.785 63.5401 119.698 63.5401 119.612 63.546C118.942 63.546 118.376 63.546 117.905 63.546C117.908 63.5098 117.908 63.4734 117.905 63.4373V63.3648C117.908 63.3293 117.916 63.2944 117.927 63.2606C118.032 63.2317 118.14 63.2135 118.249 63.2062H118.426C118.378 63.1214 118.318 63.0436 118.249 62.9752L116.994 61.6932L116.731 61.8291V62.7985C116.731 62.8257 116.731 62.8755 116.731 62.9526V63.1247C116.777 63.1574 116.828 63.1834 116.881 63.2017C116.982 63.2289 117.085 63.2456 117.189 63.2515H117.302V63.3738V63.4599C117.305 63.484 117.305 63.5083 117.302 63.5324H117.27C116.972 63.5324 116.74 63.5097 116.568 63.4962H116.346H115.857L115.445 63.5324H115.318H115.033C115.029 63.4841 115.029 63.4357 115.033 63.3874C115.028 63.3603 115.028 63.315 115.033 63.2606Z" fill="#939598"/>
<path d="M120.31 62.232C120.38 62.217 120.451 62.2079 120.522 62.2048H120.622L120.667 62.2547C120.769 62.4387 120.882 62.6158 121.007 62.7847C121.106 62.9005 121.219 63.0039 121.342 63.0927C121.451 63.1565 121.566 63.2067 121.687 63.2422C121.794 63.2828 121.907 63.3028 122.022 63.3011C122.213 63.3054 122.399 63.2375 122.543 63.1108C122.607 63.0639 122.659 63.0034 122.697 62.9337C122.735 62.864 122.756 62.7868 122.76 62.7077C122.763 62.6162 122.735 62.5265 122.679 62.454C122.586 62.3618 122.475 62.2908 122.353 62.2456C122.153 62.1808 121.951 62.1264 121.746 62.0825C121.424 62.0055 121.229 61.9512 121.161 61.9285C121.014 61.876 120.878 61.7978 120.758 61.6975C120.647 61.6055 120.556 61.4913 120.491 61.3623C120.418 61.2219 120.376 61.0673 120.368 60.9093C120.362 60.7123 120.398 60.5162 120.473 60.334C120.545 60.1842 120.647 60.0503 120.772 59.9399C120.897 59.8352 121.039 59.7539 121.193 59.6998C121.388 59.6297 121.593 59.5944 121.8 59.5956C122.068 59.5922 122.337 59.6119 122.602 59.6545C122.806 59.6863 123.004 59.7473 123.191 59.8357C123.209 59.9082 123.236 60.0712 123.272 60.3249C123.304 60.5831 123.322 60.7326 123.322 60.7779C123.325 60.8004 123.325 60.8233 123.322 60.8459C123.256 60.8666 123.187 60.8788 123.118 60.8821H122.978C122.946 60.8368 122.91 60.7734 122.86 60.6873C122.745 60.4617 122.583 60.2639 122.384 60.1075C122.221 59.9929 122.026 59.9327 121.827 59.9353C121.624 59.9301 121.425 59.9958 121.265 60.1211C121.213 60.1608 121.17 60.2121 121.141 60.2711C121.112 60.33 121.096 60.395 121.096 60.4608C121.096 60.5267 121.112 60.5916 121.141 60.6506C121.17 60.7095 121.213 60.7609 121.265 60.8006C121.433 60.9356 121.636 61.0204 121.85 61.0452C122.169 61.1038 122.481 61.1934 122.783 61.3124C123.025 61.4043 123.236 61.561 123.394 61.7654C123.512 61.9478 123.573 62.1603 123.571 62.377C123.575 62.5501 123.539 62.7219 123.466 62.8789C123.393 63.036 123.285 63.1742 123.15 63.283C122.795 63.5452 122.358 63.6721 121.918 63.6408C121.845 63.6408 121.664 63.6408 121.365 63.5955C121.204 63.5748 121.046 63.543 120.889 63.5004C120.769 63.4635 120.651 63.4196 120.536 63.369C120.505 63.3539 120.478 63.3303 120.459 63.3011C120.426 63.1749 120.405 63.046 120.396 62.916C120.341 62.531 120.314 62.309 120.31 62.232Z" fill="#939598"/>
<path d="M124.187 64.923C124.191 64.9015 124.202 64.8821 124.219 64.8686L124.382 64.7825C124.558 64.6931 124.713 64.5664 124.835 64.4111C124.946 64.2849 125.013 64.1258 125.026 63.9581C125.029 63.8855 125.008 63.8139 124.967 63.7542C124.871 63.6575 124.761 63.5765 124.64 63.5142C124.501 63.4499 124.376 63.3573 124.274 63.2424C124.206 63.1458 124.172 63.0294 124.178 62.9117C124.177 62.8258 124.194 62.7406 124.229 62.6622C124.265 62.5839 124.317 62.5144 124.382 62.4587C124.529 62.3319 124.719 62.2669 124.912 62.2775C125.045 62.2796 125.177 62.3103 125.297 62.3673C125.417 62.4243 125.524 62.5065 125.61 62.6082C125.816 62.8321 125.927 63.1281 125.918 63.4326C125.917 63.6316 125.883 63.829 125.818 64.017C125.766 64.1933 125.684 64.359 125.574 64.5062C125.442 64.675 125.289 64.8271 125.121 64.9592C124.954 65.0619 124.781 65.1557 124.604 65.24C124.564 65.2581 124.521 65.2674 124.477 65.2672C124.43 65.2664 124.385 65.2487 124.351 65.2174C124.279 65.1296 124.224 65.0299 124.187 64.923Z" fill="#939598"/>
<path d="M128.667 63.5139V63.1787L128.98 63.1017C129.136 63.0675 129.288 63.0158 129.433 62.9477C129.497 62.8252 129.527 62.6873 129.519 62.5491V62.0055V60.9455V60.6963C129.546 60.0848 129.555 59.7903 129.555 59.7541V59.138V58.8889L129.528 58.3589V58.1596C129.52 58.1092 129.509 58.0593 129.496 58.0101C129.289 57.9371 129.072 57.9003 128.853 57.9014H128.685V57.4937L130.044 57.548H130.361C130.551 57.548 130.855 57.548 131.267 57.5118L131.72 57.4846C131.72 57.5435 131.72 57.5933 131.72 57.6341C131.72 57.6749 131.72 57.7519 131.72 57.838C131.593 57.8787 131.448 57.9195 131.267 57.9603C131.13 57.9894 130.995 58.0287 130.864 58.078C130.839 58.191 130.828 58.3067 130.832 58.4223C130.827 58.531 130.827 58.6398 130.832 58.7485C130.832 59.2694 130.832 59.6544 130.832 59.9534V61.1765L130.81 61.7926V62.7212V62.8979C130.813 62.9339 130.822 62.9691 130.837 63.0021C131.032 63.0428 131.208 63.07 131.371 63.0881L131.661 63.1244C131.674 63.2007 131.682 63.2779 131.684 63.3554C131.684 63.3871 131.684 63.4415 131.684 63.5139H131.589H131.412H131.285C131.245 63.5139 131.027 63.4822 130.647 63.446H129.795C129.627 63.446 129.378 63.446 129.057 63.4913L128.667 63.5139Z" fill="#939598"/>
<path d="M132.13 63.2965C132.204 63.2634 132.281 63.2391 132.361 63.224C132.466 63.2138 132.569 63.191 132.669 63.1561C132.713 63.1348 132.747 63.0975 132.764 63.0519C132.788 62.9174 132.797 62.7807 132.791 62.6442V62.241V61.9103V61.4256V61.1357C132.796 60.9744 132.781 60.8132 132.746 60.6556C132.721 60.5971 132.678 60.548 132.624 60.5151C132.482 60.433 132.33 60.372 132.171 60.3339V60.112L132.284 60.0893L132.674 59.9987C132.789 59.961 132.902 59.9171 133.013 59.8673L133.09 59.8266C133.131 59.7928 133.175 59.7625 133.222 59.736C133.35 59.6373 133.466 59.5232 133.566 59.3962H133.829V59.9172C133.825 59.9594 133.825 60.0018 133.829 60.044C133.829 60.044 133.829 60.1391 133.829 60.2569C134.045 60.0686 134.289 59.9158 134.553 59.8039C134.81 59.6955 135.086 59.6371 135.364 59.6318C135.643 59.6262 135.918 59.7 136.157 59.8447C136.359 59.9586 136.518 60.1351 136.61 60.3475C136.702 60.7207 136.737 61.1055 136.714 61.4891V62.9975C136.712 63.0584 136.725 63.1189 136.75 63.1742C136.835 63.2108 136.926 63.2338 137.018 63.2421L137.253 63.2829C137.283 63.3271 137.299 63.3792 137.299 63.4324C137.299 63.4641 137.299 63.5185 137.299 63.5819L136.352 63.5139H136.075H135.854L135.215 63.5592H135.052C135.05 63.5291 135.05 63.4988 135.052 63.4686C135.052 63.4143 135.052 63.3554 135.052 63.292L135.391 63.2467C135.445 63.2392 135.498 63.2286 135.55 63.215C135.613 63.1923 135.65 63.1651 135.659 63.1425C135.693 63.0451 135.707 62.9419 135.7 62.839C135.7 62.5808 135.7 62.386 135.7 62.241V61.702C135.731 61.2912 135.687 60.8781 135.568 60.4834C135.521 60.3779 135.444 60.2886 135.347 60.2266C135.249 60.1646 135.136 60.1326 135.02 60.1346C134.827 60.1386 134.636 60.185 134.463 60.2705C134.247 60.3746 134.047 60.5088 133.869 60.6691V60.7462V61.0406V61.3486V62.0915V62.2048C133.845 62.4917 133.866 62.7807 133.933 63.0609C134.071 63.1738 134.237 63.2473 134.413 63.2739C134.416 63.3131 134.416 63.3524 134.413 63.3916C134.41 63.4502 134.399 63.508 134.381 63.5638H134.128C134.021 63.5585 133.916 63.5479 133.811 63.5321L133.249 63.5139C132.991 63.5139 132.619 63.5139 132.134 63.5456C132.128 63.5143 132.128 63.4819 132.134 63.4505C132.125 63.4188 132.125 63.369 132.13 63.2965Z" fill="#939598"/>
<path d="M141.252 62.3226L141.366 62.377C141.433 62.4049 141.494 62.4448 141.547 62.4948C141.439 62.8283 141.213 63.1114 140.913 63.292C140.536 63.5316 140.095 63.6501 139.649 63.6318C139.32 63.6311 138.996 63.5648 138.693 63.437C138.407 63.3278 138.151 63.1524 137.946 62.9251C137.795 62.75 137.684 62.5445 137.619 62.3226C137.554 62.1266 137.518 61.9221 137.511 61.7156C137.517 61.4816 137.563 61.2503 137.647 61.0316C137.747 60.7633 137.901 60.5183 138.1 60.3113C138.327 60.0772 138.602 59.8948 138.906 59.7768C139.251 59.638 139.621 59.5702 139.993 59.5775C140.398 59.5403 140.804 59.6272 141.157 59.8266C141.246 59.8795 141.321 59.9518 141.378 60.0382C141.434 60.1245 141.471 60.2226 141.483 60.3249C141.49 60.4667 141.444 60.6059 141.352 60.7145C141.304 60.7625 141.247 60.7998 141.184 60.824C141.12 60.8482 141.053 60.8587 140.985 60.8549C140.853 60.8558 140.725 60.811 140.623 60.7281C140.493 60.6166 140.397 60.4705 140.346 60.3068C140.303 60.1854 140.226 60.0786 140.125 59.9988C140.03 59.9342 139.917 59.901 139.803 59.9037C139.649 59.9061 139.497 59.9409 139.358 60.0056C139.218 60.0704 139.093 60.1637 138.992 60.2796C138.744 60.5577 138.617 60.9226 138.639 61.2943C138.628 61.5189 138.663 61.7432 138.741 61.954C138.819 62.1649 138.938 62.358 139.092 62.5219C139.216 62.6613 139.368 62.7735 139.538 62.8514C139.708 62.9294 139.892 62.9714 140.079 62.9749C140.232 62.9777 140.385 62.9578 140.532 62.916C140.649 62.8681 140.76 62.8074 140.863 62.7349C140.933 62.6722 140.999 62.6056 141.062 62.5355C141.148 62.4313 141.216 62.3589 141.252 62.3226Z" fill="#939598"/>
<path d="M142.869 62.3089C143.056 62.3035 143.239 62.3681 143.381 62.4901C143.444 62.5409 143.496 62.6049 143.532 62.6777C143.568 62.7505 143.588 62.8302 143.589 62.9114C143.602 63.0733 143.555 63.2343 143.458 63.3644C143.391 63.4472 143.306 63.5137 143.209 63.5592C143.113 63.6047 143.008 63.6279 142.901 63.6271C142.809 63.6305 142.717 63.6154 142.63 63.5827C142.544 63.5501 142.465 63.5005 142.398 63.4369C142.332 63.3762 142.28 63.3018 142.245 63.2188C142.211 63.1359 142.195 63.0464 142.199 62.9567C142.201 62.8324 142.238 62.7112 142.308 62.6079C142.384 62.5013 142.483 62.4131 142.597 62.3497C142.683 62.3118 142.777 62.2977 142.869 62.3089Z" fill="#939598"/>
<path d="M111.504 25.0776C110.401 24.1175 109.049 23.4893 107.604 23.2656C107.245 23.2164 106.883 23.1937 106.521 23.1976H87.4956V20.8058H113.624V15.678H89.6156C88.4666 15.684 87.3276 15.891 86.2499 16.2895C85.5398 16.5823 84.8676 16.9595 84.2477 17.4129C80.8457 20.0267 80.9816 24.8601 84.7777 27.2746C85.9883 28.0686 87.4069 28.4863 88.8546 28.475H90.2362V30.7853L97.7015 33.7795H90.0596L82.5897 30.7853V33.1227L90.055 36.1396H106.612C107.328 36.1372 108.039 36.0288 108.723 35.818C109.4 35.6135 110.046 35.3179 110.644 34.9392C114.195 32.6335 114.625 27.8771 111.504 25.0776ZM97.7106 31.4195L90.2453 28.4297H97.9144L105.371 31.4195H97.7106ZM105.353 29.0865L97.8827 26.0968H105.353L112.995 29.0865H105.353Z" fill="#009DDC"/>
<path d="M113.592 0V15.7143H115.988V13.2319H118.987V15.0801C119.091 15.0348 119.204 14.994 119.318 14.9533V13.2319H122.344V14.3961H122.679V13.2319H125.818V14.3689H126.153V13.2319H129.297V14.3689H129.623V13.2319H132.731V14.3689H133.066V13.2319H136.205V14.3689H136.54V13.2319H139.684V14.3689H140.042V13.2319H143.113V14.3689H143.444V13.2319H146.026L146.533 13.404V14.3689H146.837V13.5354L151.924 15.2568H159.385L113.592 0ZM118.987 12.9148H115.988V9.80728H118.987V12.9148ZM118.987 9.47659H115.988V6.19693H118.987V9.47659ZM118.987 5.85266H115.988V3.08488L118.987 4.09958V5.85266ZM122.344 12.9012H119.318V9.80728H122.344V12.9012ZM122.344 9.46301H119.318V6.19693H122.344V9.46301ZM122.344 5.83907H119.318V4.21283L122.344 5.23659V5.83907ZM122.679 5.32266L124.187 5.86625H122.665L122.679 5.32266ZM125.818 12.8876H122.679V9.80728H125.818V12.8876ZM125.818 9.44942H122.679V6.19693H125.188L125.818 6.41437V9.44942ZM129.297 12.8876H126.153V9.80728H129.297V12.8876ZM129.297 9.44942H126.153V6.52762L129.297 7.59215V9.44942ZM132.735 12.8876H129.623V9.80728H132.731L132.735 12.8876ZM132.735 9.44942H129.623V7.70087L132.731 8.75634L132.735 9.44942ZM133.07 8.84241L134.882 9.44942H133.07V8.84241ZM136.21 12.8876H133.07V9.80728H135.847L136.21 9.93412V12.8876ZM139.689 12.8876H136.545V10.061L139.689 11.1255V12.8876ZM143.091 12.8876H140.042V11.2206L143.113 12.2625L143.091 12.8876ZM143.421 12.8876V12.3757L145.025 12.9148L143.421 12.8876Z" fill="#009DDC"/>
<path d="M146.254 19.5964C146.254 19.5964 146.838 14.5002 154.539 14.387H179.001V21.0686L146.254 19.5964Z" fill="white"/>
<path d="M157.347 37.1909V38.269H154.353V37.1909H154.017V38.269H150.996V37.1909H150.661V38.269H147.517V37.1909H147.186V38.269H144.042V37.1909H143.707V38.269H140.604V37.1909H140.269V38.269H137.125V37.1909H136.795V38.269H133.651V37.1909H133.316V38.269H130.444L127.585 37.1909H121.565C121.012 37.1909 120.505 37.1637 120.029 37.1184L159.743 51.5054V37.1909H157.347ZM133.316 39.3562L131.327 38.5997H133.316V39.3562ZM136.795 40.6699L133.651 39.5057V38.5997H136.795V40.6699ZM140.269 41.6982H139.522L137.125 40.7922V38.5997H140.269V41.6982ZM143.707 43.2791L140.604 42.1058V42.0334H143.707V43.2791ZM143.707 41.6982H140.604V38.5997H143.707V41.6982ZM147.186 44.5882L144.042 43.4014V42.0424H147.186V44.5882ZM147.186 41.6982H144.042V38.5997H147.186V41.6982ZM150.661 45.9019L149.977 45.6437H150.661V45.9019ZM150.661 45.3085H149.102L147.526 44.7151V42.0334H150.67L150.661 45.3085ZM150.661 41.6846H147.517V38.5997H150.661V41.6846ZM154.017 47.1522L150.996 46.0152V45.6301H154.017V47.1522ZM154.017 45.2949H150.996V42.0198H154.017V45.2949ZM154.017 41.671H150.996V38.5997H154.017V41.671ZM157.347 48.3979L154.353 47.2654V45.6165H157.347V48.3979ZM157.347 45.2813H154.353V42.0062H157.347V45.2813ZM157.347 41.6574H154.353V38.5997H157.347V41.6574Z" fill="#009DDC"/>
<path d="M115.672 23.0345C115.672 19.7775 116.578 17.9882 118.657 16.6926C119.11 16.3948 119.609 16.1729 120.134 16.0358C120.845 15.8091 121.589 15.7035 122.335 15.7232L123.146 15.696H146.086V20.7424H121.017V30.7943H146.059V35.8134H122.503C120.487 35.8134 119.278 35.3921 117.973 34.314C116.279 32.869 115.636 31.4738 115.636 29.843L115.672 23.0345Z" fill="#009DDC"/>
<path d="M177.487 15.678V20.7243H152.622V23.0617H171.788C172.158 23.0619 172.528 23.0891 172.894 23.1433C174.342 23.362 175.7 23.9801 176.817 24.9281C179.96 27.6913 179.535 32.3707 175.956 34.6312C175.353 35.0058 174.703 35.2968 174.022 35.4964C173.333 35.7057 172.617 35.8125 171.897 35.8135H148.242V30.7898H173.51V28.2712H154.031C152.586 28.279 151.169 27.8667 149.954 27.0843C146.108 24.7197 145.977 19.9361 149.361 17.3858C149.984 16.9399 150.658 16.5689 151.367 16.2805C152.454 15.8871 153.6 15.6833 154.756 15.678H177.487Z" fill="#003D79"/>
</svg>
